<?xml version="1.0" encoding="UTF-8" standalone="no"?>
<!-- Created with Inkscape (http://www.inkscape.org/) -->

<svg
   xmlns:dc="http://purl.org/dc/elements/1.1/"
   xmlns:cc="http://creativecommons.org/ns#"
   xmlns:rdf="http://www.w3.org/1999/02/22-rdf-syntax-ns#"
   xmlns:svg="http://www.w3.org/2000/svg"
   xmlns="http://www.w3.org/2000/svg"
   xmlns:sodipodi="http://sodipodi.sourceforge.net/DTD/sodipodi-0.dtd"
   xmlns:inkscape="http://www.inkscape.org/namespaces/inkscape"
   width="210mm"
   height="297mm"
   id="svg3453"
   version="1.1"
   inkscape:version="0.91pre1_64bit "
   viewBox="0 0 744.09447 1052.3622"
   sodipodi:docname="icones.svg">
  <defs
     id="defs3455" />
  <sodipodi:namedview
     id="base"
     pagecolor="#ffffff"
     bordercolor="#666666"
     borderopacity="1.0"
     inkscape:pageopacity="0.0"
     inkscape:pageshadow="2"
     inkscape:zoom="0.35"
     inkscape:cx="875.30726"
     inkscape:cy="654.76232"
     inkscape:document-units="px"
     inkscape:current-layer="layer1"
     showgrid="false"
     inkscape:window-width="1366"
     inkscape:window-height="705"
     inkscape:window-x="-8"
     inkscape:window-y="-8"
     inkscape:window-maximized="1" />
  <metadata
     id="metadata3458">
    <rdf:RDF>
      <cc:Work
         rdf:about="">
        <dc:format>image/svg+xml</dc:format>
        <dc:type
           rdf:resource="http://purl.org/dc/dcmitype/StillImage" />
        <dc:title></dc:title>
      </cc:Work>
    </rdf:RDF>
  </metadata>
  <g
     inkscape:label="Camada 1"
     inkscape:groupmode="layer"
     id="layer1">
    <path
       style="fill:#0c4974"
       d="m 97.153633,248.94559 c -6.18811,-1.23691 -11.14497,-4.00334 -13.97547,-7.79973 -2.07806,-2.78718 -2.1081,-3.59228 -2.38842,-64 -0.15614,-33.64752 -0.0371,-62.18156 0.26445,-63.40897 1.6762,-6.8219 12.65761,-13.26834 22.602407,-13.26834 3.98374,0 5.50993,0.50199 7.46248,2.45454 2.10607,2.10607 2.45455,3.38384 2.45455,9 l 0,6.54546 12,0 12,0 0,-19.5 c 0,-24.84744 -0.94282,-23.5 16.4433,-23.5 16.48756,0 15.5567,-1.42327 15.5567,23.78586 l 0,19.34086 3.18486,-0.31336 3.18487,-0.31336 0.24339,-19.34198 c 0.31011,-24.64429 -0.74159,-23.15802 16.38688,-23.15802 17.45213,0 16.5,-1.3619 16.5,23.60129 l 0,19.3945 11.29545,0.002 c 10.65798,0.002 11.43399,0.14063 13.75,2.45665 l 2.45455,2.45455 0,60.87114 0,60.87114 -2.32553,2.18472 -2.32553,2.18472 -64.8256,0.2396 c -41.17806,0.15219 -66.69249,-0.13357 -69.943337,-0.78337 z m 132.419997,-65.02688 0,-58.52013 -10.06271,0.28499 -10.06272,0.28498 -0.18728,47.64511 c -0.17809,45.30503 -0.28085,47.74849 -2.09228,49.75 -1.74598,1.9292 -2.96422,2.10489 -14.59501,2.10489 -11.27042,0 -12.88559,-0.21609 -14.43817,-1.93168 -1.55277,-1.71579 -1.79547,-5.04068 -2.1716,-29.75 -0.2329,-15.30008 -0.41598,-36.93082 -0.40684,-48.06832 l 0.0166,-20.25 -3,0 -3,0 0,41.03324 0,41.03325 -2.47079,4.71675 c -1.35894,2.59422 -4.40444,7.86676 -6.76779,11.71676 -6.26811,10.21104 -7.41854,9.92166 -15.71335,-3.95254 l -6.54807,-10.95254 -0.28151,-41.79746 -0.2815,-41.79746 -11.9685,0 -11.96849,0 0,44.80887 c 0,35.42723 -0.27505,45.18502 -1.31368,46.60544 -0.93159,1.27403 -3.04031,1.91904 -7.25,2.21762 -8.347227,0.59205 -14.155857,2.92504 -15.957617,6.40925 -3.86374,7.47165 0.28823,14.47476 9.69632,16.35476 3.767727,0.7529 25.451447,1.01982 68.174997,0.8392 l 62.64998,-0.26486 0,-58.52012 z m -71.69231,29.54882 2.80768,-4.99898 -7.05739,0 -7.0574,0 2.74971,4.98559 c 1.51234,2.74208 3.42471,4.99162 4.24971,4.99899 0.825,0.007 2.76346,-2.23616 4.30769,-4.9856 z m 43.69231,-0.99898 c 0,-5.87508 -0.0573,-6.00032 -2.75,-6.01531 -3.8653,-0.0215 -5.47996,-1.32207 -5.08749,-4.09778 0.27742,-1.96208 1.00492,-2.44215 4.08749,-2.69728 l 3.75,-0.31036 0,-4.93964 c 0,-4.71831 -0.12321,-4.94032 -2.75,-4.95494 -3.8653,-0.0215 -5.47996,-1.32207 -5.08749,-4.09778 0.27742,-1.96208 1.00492,-2.44215 4.08749,-2.69728 l 3.75,-0.31036 0,-5.43964 0,-5.43963 -5.46482,0 c -4.49777,0 -5.66028,-0.36523 -6.56939,-2.06392 -1.7756,-3.31775 0.40684,-4.93608 6.65665,-4.93608 l 5.37756,0 0,-5.43964 0,-5.43963 -3.75,-0.31037 c -3.08257,-0.25512 -3.81007,-0.73519 -4.08749,-2.69727 -0.39247,-2.77571 1.22219,-4.07625 5.08749,-4.09778 2.62679,-0.0146 2.75,-0.23663 2.75,-4.95495 l 0,-4.93963 -3.75,-0.31037 c -3.43103,-0.28396 -3.75,-0.56554 -3.75,-3.31036 0,-2.74482 0.31897,-3.0264 3.75,-3.31037 l 3.75,-0.31036 0,-4.93964 0,-4.93963 -5.45031,0 c -5.9977,0 -8.24736,-1.82787 -6.42971,-5.22418 0.73241,-1.36852 2.2038,-1.77582 6.4152,-1.77582 l 5.46482,0 0,-4.86346 c 0,-4.42927 -0.20087,-4.8477 -2.25,-4.68682 -3.18349,0.24994 -5.75,-1.21628 -5.75,-3.2849 0,-2.56414 1.99854,-4.16482 5.2,-4.16482 2.77949,0 2.8,-0.0476 2.8,-6.5 l 0,-6.5 -9,0 -9,0 0,68 0,68 9,0 9,0 0,-6 z m -102.345727,-0.0894 7.345727,-1.185 0,-51.39418 c 0,-44.58287 -0.19726,-51.46988 -1.48838,-51.96533 -2.76976,-1.06286 -11.880747,1.84919 -14.744037,4.71248 l -2.76758,2.76758 0,50.63363 0,50.63363 2.15427,-1.50891 c 1.18485,-0.8299 5.45985,-2.04216 9.5,-2.6939 z m 58.605237,-11.79316 4.75952,-0.11744 -0.25952,-48.75 -0.25951,-48.75 -8.5,0.0547 -8.5,0.0547 -0.26041,47.94534 c -0.14323,26.36994 -0.0649,48.45565 0.17411,49.07937 0.2459,0.64174 2.09537,1.0183 4.26041,0.86744 2.10424,-0.14662 5.96767,-0.31944 8.5854,-0.38403 z m 4.74049,-111.61744 0,-6.5 -9,0 -9,0 0,6.5 0,6.5 9,0 9,0 0,-6.5 z"
       id="path3556"
       inkscape:connector-curvature="0" />
    <path
       style="fill:#0a4a75"
       d="m 131.38835,519.35012 c -9.51232,-0.94712 -17.55208,-6.40928 -19.5167,-13.25954 -0.59531,-2.07573 -0.97463,-26.51386 -0.96134,-61.93516 0.0206,-54.89411 0.1369,-58.75969 1.88347,-62.60553 1.02383,-2.25441 3.15145,-5.01367 4.72804,-6.13168 4.17048,-2.95743 11.72895,-5.26939 17.22716,-5.26939 6.87625,0 9.25167,2.75707 9.62707,11.17385 l 0.28216,6.32615 37.63541,0.26205 37.63541,0.26204 11.22966,-22.73807 c 9.32354,-18.87851 11.67916,-22.89613 13.87782,-23.66927 2.23154,-0.7847 4.35541,-0.0805 13.5,4.47602 8.18005,4.07594 11.06023,6.02275 11.69824,7.90723 0.69999,2.06757 -0.90002,6.093 -9.25,23.27189 l -10.0964,20.7719 0,58.30379 0,58.30379 -2.30071,2.16141 c -2.29418,2.15527 -2.45949,2.16215 -58.25,2.42431 -30.77211,0.1446 -57.29929,0.12849 -58.94929,-0.0358 z m 60.58179,-7.2013 51.91821,0 -0.0627,-49.75 -0.0627,-49.75 -10.91204,21.86705 c -6.00162,12.02687 -11.4174,22.47598 -12.03508,23.22024 -0.61768,0.74425 -5.51341,4.06658 -10.87941,7.38295 l -9.75627,6.02976 -14.1459,0 -14.1459,0 0,7.03221 0,7.0322 23.75,-0.0655 c 13.0625,-0.036 24.48502,-0.0505 25.38337,-0.0322 2.22854,0.0454 3.02881,3.72823 1.20618,5.55086 -1.23229,1.23231 -5.78054,1.48243 -26.95643,1.48243 l -25.47403,0 -2.45455,-2.45455 -2.45454,-2.45454 0,-31.04546 c 0,-29.22895 -0.10532,-31.04545 -1.8,-31.04545 -4.48802,0 -5.71858,-5.47214 -1.58406,-7.04408 3.16585,-1.20365 14.39228,-0.96083 16.13406,0.34898 0.6875,0.51699 1.25,1.96174 1.25,3.21056 0,2.32634 -1.6891,3.48454 -5.08179,3.48454 -1.82537,0 -1.91821,0.94381 -1.91821,19.5 l 0,19.5 11.09623,0 11.09623,0 -0.70999,-10.41653 -0.70999,-10.41652 11.61376,-23.67044 c 6.38757,-13.01874 11.61376,-23.86198 11.61376,-24.0961 0,-0.23412 -16.0875,-0.30749 -35.75,-0.16304 l -35.75,0.26263 -0.18303,44.98656 c -0.18267,44.89832 -0.1873,44.99002 -2.36078,46.75 -1.48186,1.19993 -3.91014,1.76344 -7.59909,1.76344 -9.82836,0 -15.5571,4.18172 -15.5571,11.35598 0,4.55078 1.60509,7.28502 5.44098,9.26864 3.30309,1.70809 12.26725,3.39589 14.59081,2.74719 0.73248,-0.2045 24.69498,-0.37181 53.25,-0.37181 z m -68.95391,-28.38905 c 1.85466,-0.76398 5.73462,-1.70621 8.62212,-2.09384 l 5.25,-0.70479 0,-51.90616 0,-51.90616 -2.25,0.006 c -4.30115,0.0107 -9.87552,2.13477 -13.0533,4.97394 l -3.1967,2.85606 -0.21065,49.24136 c -0.11586,27.08275 0.0232,49.61974 0.30902,50.0822 0.66438,1.07499 0.55757,1.08791 4.52951,-0.54821 z m 85.76057,-26.53095 4.38846,-2.91143 -6.10994,-3.08428 c -3.36047,-1.69636 -6.23527,-3.08457 -6.38845,-3.08491 -0.86356,-0.002 0.63163,10.62377 1.58097,11.23531 1.64702,1.06097 1.71653,1.03803 6.52896,-2.15469 z m 27.17153,-45.59169 c 9.86701,-20.08143 17.93111,-36.84393 17.92022,-37.25 -0.0205,-0.76574 -13.19208,-7.23831 -14.7298,-7.23831 -1.03799,0 -35.7504,70.59489 -35.7504,72.70584 0,1.21736 11.19586,7.85783 13.80998,8.19094 0.44548,0.0568 8.88298,-16.32704 18.75,-36.40847 z m 24.42317,-49.45507 c 1.38427,-2.73171 2.51685,-5.15675 2.51685,-5.38897 0,-0.52482 -15.2053,-7.78689 -15.52449,-7.41451 -0.1274,0.14863 -1.37152,2.52024 -2.7647,5.27024 l -2.53305,5 7.16112,3.70051 c 3.93862,2.03528 7.49104,3.72278 7.89427,3.75 0.40324,0.0272 1.86574,-2.18555 3.25,-4.91727 z"
       id="path3569"
       inkscape:connector-curvature="0" />
    <path
       style="fill:#0b4a74"
       d="m 429.76612,294.51899 c -1.56465,-1.14185 -2.0381,-3.01733 -2.44113,-9.6701 -0.49014,-8.09076 -0.55388,-8.26064 -3.23254,-8.61528 -1.5029,-0.19898 -6.57641,-2.37243 -11.27447,-4.8299 -6.78217,-3.54763 -9.56696,-4.46813 -13.51746,-4.46813 l -4.97553,0 0,5.06574 c 0,9.04415 0.21938,8.93426 -17.83518,8.93426 -10.92819,0 -16.13298,-0.36816 -16.96482,-1.2 -0.89588,-0.89588 -1.2,-12.02627 -1.2,-43.91821 0,-23.49502 0.27314,-43.43002 0.60699,-44.3 0.51926,-1.35318 2.97111,-1.58179 16.96481,-1.58179 15.22165,0 16.43067,0.1361 17.40652,1.95949 0.57678,1.07772 0.93011,2.54022 0.78518,3.25 -0.18597,0.9108 1.45482,1.37954 5.57656,1.5931 l 5.84006,0.30259 7.65994,-7.84639 c 4.21297,-4.31551 9.12244,-8.44377 10.90994,-9.17391 2.75158,-1.12393 3.25,-1.83895 3.25,-4.66239 l 0,-3.33487 -7.25,-0.29381 c -6.87831,-0.27875 -7.26808,-0.42198 -7.60274,-2.79381 -0.58957,-4.17849 1.81706,-12.91054 3.85953,-14.00363 1.02395,-0.548 3.91631,-0.99637 6.42747,-0.99637 3.39177,0 4.56574,-0.38569 4.56574,-1.5 0,-1.16735 -1.33608,-1.5 -6.02475,-1.5 -6.84721,0 -7.31526,-0.54407 -8.56356,-9.95421 -0.92086,-6.94178 0.20579,-8.04579 8.21075,-8.04579 l 6.37756,0 0,-3.84501 c 0,-7.01933 0.99199,-7.31977 23.91311,-7.24252 27.75213,0.0935 46.3991,2.44118 52.82326,6.65044 1.94857,1.27676 2.28528,2.41948 2.41915,8.21014 0.0855,3.69982 0.0572,7.85195 -0.063,9.22695 -0.45301,5.18164 -1.56361,5.4614 -23.81942,6 l -20.66072,0.5 0.0185,10 0.0185,10 21.06914,0.26958 c 17.37283,0.22228 21.28983,0.53549 22.32707,1.78529 1.58682,1.91201 1.58303,16.98282 -0.005,18.89599 -0.62228,0.74981 -3.92353,1.64874 -7.3361,1.99762 -13.31874,1.36164 -13.57396,1.44456 -13.49042,4.38256 0.0419,1.47322 -0.22435,3.62538 -0.59163,4.78258 -0.43249,1.36266 -0.10807,2.56854 0.92073,3.42236 2.82388,2.34362 4.45664,6.74526 4.45664,12.01436 0,4.54863 -0.4071,5.55676 -3.48806,8.63772 -2.80799,2.80799 -3.29541,3.84801 -2.5,5.33426 0.54343,1.01541 0.98806,3.85355 0.98806,6.30698 0,4.43322 -1.12481,6.22804 -6.2191,9.92361 -1.37958,1.00079 -1.55604,1.9543 -0.89348,4.82787 1.65552,7.17926 -4.7119,14.91922 -12.27338,14.91922 l -2.61385,0 0,11 c 0,15.16697 0.19267,15 -17.30887,15 -9.90163,0 -13.80582,-0.36266 -15.25,-1.41659 z m 25.55887,-15.39632 c 0,-9.59786 -0.0658,-9.8759 -3,-12.68709 -1.65,-1.5808 -3,-3.45408 -3,-4.16284 0,-0.70876 -1.62177,-2.76207 -3.60392,-4.56291 -4.73496,-4.30182 -7.14778,-9.21943 -9.38809,-19.134 l -1.83938,-8.14025 -0.0843,29.25 -0.0843,29.25 10.5,0 10.5,0 0,-9.81291 z m -69,-43.68709 0,-38.5 -10,0 -10,0 0,38.5 0,38.5 10,0 10,0 0,-38.5 z m 41,17.38337 0,-16.11663 -2.25,0.64224 c -6.18412,1.7652 -11.32009,1.81396 -12.72527,0.12082 -2.13581,-2.57349 -0.15188,-4.73421 5.54672,-6.04099 7.4236,-1.70234 10.87571,-3.92655 14.28479,-9.20375 4.99118,-7.72624 5.39252,-8.04732 7.99647,-6.39725 0.87279,0.55306 1.52429,3.65201 1.83631,8.73469 0.91499,14.9043 4.55325,25.83124 9.4785,28.46715 5.53043,2.9598 6.81986,-2.29133 6.8269,-27.80214 0.005,-17.96777 -0.22316,-20.82386 -2.05414,-25.71758 -3.99779,-10.68506 -15.17048,-17.17258 -25.07009,-14.55717 -3.38261,0.89367 -5.97382,2.80676 -11.46652,8.46576 -8.48618,8.74312 -11.98957,10.72204 -19.34668,10.92813 -6.65387,0.18638 -5.92804,-3.31659 -6.28741,30.34405 l -0.26958,25.2507 5.73927,-7e-4 c 6.37713,-7.8e-4 13.34134,2.28318 19.29249,6.32709 2.16288,1.46971 4.95305,2.67221 6.20037,2.67221 2.26335,0 2.26787,-0.0321 2.26787,-16.11663 z m 40.77749,8.55993 c 2.59211,-1.81559 2.90648,-5.61647 0.65108,-7.87187 -2.34455,-2.34456 -4.19996,-1.91419 -5.89718,1.36787 -0.83598,1.61661 -2.53504,3.65429 -3.77568,4.52819 -1.91439,1.34847 -2.02874,1.73362 -0.75571,2.54539 2.29019,1.46037 7.29563,1.16878 9.77749,-0.56958 z m 5.75463,-17.89227 c 2.67224,-1.11654 3.46788,-2.03426 3.46788,-4 0,-3.76374 -3.30357,-6.55103 -7.76444,-6.55103 l -3.76444,0 -0.0947,6 c -0.0897,5.68695 0.0301,6 2.29656,6 1.31518,0 3.95178,-0.65204 5.85912,-1.44897 z m 7.21788,-19.79911 c 1.67401,-1.33493 1.5893,-6.90564 -0.14098,-9.27194 -1.08187,-1.47954 -2.97082,-1.99155 -8.5,-2.30398 l -7.10902,-0.40169 0.0137,4.36284 c 0.0231,7.37524 0.73963,8.71666 4.83879,9.05859 4.7896,0.39952 9.34243,-0.20368 10.89756,-1.44382 z m -5,-20.99675 c 1.75533,-1.40435 1.55767,-3.75517 -0.31574,-3.75517 -2.76854,0 -5.43426,2.01247 -5.43426,4.10257 0,1.64518 0.4285,1.90084 2.25,1.34243 1.2375,-0.37938 2.8125,-1.1398 3.5,-1.68983 z m -4.09456,-10.36865 c 4.16067,-1.26649 22.3628,-4.31351 26.09456,-4.3682 0.78861,-0.0116 1.25,-1.49476 1.25,-4.01832 l 0,-4 -23.5,0 c -14.98204,0 -23.5,0.36205 -23.5,0.99886 0,0.54936 1.75005,2.80216 3.88901,5.0062 2.13895,2.20405 4.65187,5.61499 5.58427,7.57987 1.59917,3.37001 1.79849,3.47909 3.51643,1.92438 1.00164,-0.90647 4.00122,-2.31173 6.66573,-3.12279 z m -24.86996,-17.63652 c 0.83847,-0.9625 2.80475,-1.75 4.36951,-1.75 l 2.84501,0 0,-11.88922 c 0,-17.52987 -1.35053,-16.61078 24.40807,-16.61078 l 20.5864,0 0.003,-5.17245 c 0.003,-4.95588 -0.13331,-5.21611 -3.24724,-6.21536 -7.07149,-2.26922 -17.22189,-3.26297 -39,-3.81819 l -22.75023,-0.58 0,4.52055 c 0,5.67408 -1.50621,6.98656 -8.25979,7.1974 -4.04971,0.12643 -5.30521,0.5478 -5.55901,1.86568 -0.2787,1.44714 0.55272,1.70237 5.54548,1.70237 3.2348,0 6.4124,0.53908 7.07332,1.2 0.67645,0.67645 1.2,3.91746 1.2,7.42857 0,7.96884 -1.28286,9.37143 -8.57143,9.37143 -4.15873,0 -5.42857,0.35088 -5.42857,1.5 0,1.14912 1.26984,1.5 5.42857,1.5 6.79496,0 8.57143,1.56921 8.57143,7.57143 0,4.31525 0.0832,4.43037 3.25,4.49885 1.7875,0.0387 4.15,0.42829 5.25,0.86585 1.2458,0.49556 2.14348,0.37478 2.38049,-0.32028 0.20927,-0.61372 1.06651,-1.90335 1.90499,-2.86585 z"
       id="path3582"
       inkscape:connector-curvature="0" />
    <path
       style="fill:#0b4a74"
       d="m 83.213614,726.15507 c -2.62476,-2.06464 -2.67045,-2.30274 -2.67045,-13.91722 0,-9.76929 0.3032,-12.18865 1.75,-13.96382 l 1.75,-2.14718 64.877106,0.0159 64.87712,0.0159 8.12288,4.68421 c 11.12249,6.41397 14.62289,9.12945 14.62289,11.34386 0,1.33156 -3.30429,3.88662 -11.25,8.69911 l -11.25,6.81382 -64.07955,0.278 c -63.795666,0.27676 -64.091376,0.26869 -66.749996,-1.82258 z m 17.245426,-6.35406 c 0.71104,-0.85675 1.06494,-4.34369 0.91345,-9 l -0.24732,-7.60136 -6.790996,0 -6.79101,0 0,8.41667 c 0,5.79766 0.38896,8.57361 1.25,8.92105 2.75231,1.11058 10.54107,0.61895 11.665876,-0.73636 z m 105.87305,-7.85136 0.28894,-8.75 -49.03894,0 -49.03893,0 0,8.33333 c 0,4.58334 0.29014,8.62348 0.64476,8.9781 0.35462,0.35462 22.29212,0.54212 48.75,0.41667 l 48.10524,-0.2281 0.28893,-8.75 z m 18.05069,0.71583 c 1.08825,-0.98823 0.31486,-1.80281 -4.12173,-4.34116 -3.00374,-1.71857 -5.74407,-3.12467 -6.08962,-3.12467 -0.34555,0 -0.62827,3.16897 -0.62827,7.04215 l 0,7.04216 4.75,-2.70099 c 2.6125,-1.48554 5.35283,-3.24841 6.08962,-3.91749 z M 86.728544,682.51583 c -1.85787,-0.74326 -3.26295,-4.9423 -2.40684,-7.19274 0.3968,-1.04307 6.57146,-7.25134 13.72146,-13.79616 7.149996,-6.54482 36.624996,-33.45015 65.499996,-59.78962 28.875,-26.33947 54.66342,-49.87796 57.3076,-52.30776 4.00435,-3.67968 5.25744,-4.30942 7.5,-3.76912 1.48082,0.35678 3.2549,1.38507 3.9424,2.28508 0.97031,1.27025 1.25,16.13758 1.25,66.44527 0,63.47554 -0.0411,64.85002 -2,66.80887 -1.96384,1.96384 -3.27927,1.99857 -72.75,1.92105 -38.9125,-0.0434 -71.341576,-0.31561 -72.064616,-0.60487 z m 20.814616,-9.69374 c 0,-7.05887 6.21195,-7.30621 6.81037,-0.27116 l 0.31036,3.64872 4.93964,0 4.93963,0 0,-3.37756 c 0,-7.05887 6.21195,-7.30621 6.81037,-0.27116 l 0.31036,3.64872 4.93964,0 c 4.69797,0 4.94448,-0.13453 5.03882,-2.75 0.3004,-8.3281 1.00538,-10.25 3.75983,-10.25 2.96391,0 4.14098,2.18871 4.14098,7.7 l 0,5.3 5,0 c 2.75,0 5.03656,-0.3375 5.08124,-0.75 0.0447,-0.4125 0.1732,-2.01381 0.28558,-3.55846 0.20087,-2.76072 1.95386,-4.64605 4.348,-4.67623 1.61768,-0.0204 3.28518,3.23776 3.28518,6.41895 0,2.41222 0.29917,2.56574 5,2.56574 l 5,0 0,-3.93261 c 0,-3.08507 0.44138,-4.0727 2.04799,-4.58262 2.91938,-0.92658 4.95201,1.20475 4.95201,5.19247 l 0,3.43234 4.674,-0.30479 4.67399,-0.30479 0.10205,-5 c 0.11841,-5.80209 0.92747,-7.5 3.57379,-7.5 2.58387,0 3.97617,2.95336 3.97617,8.43426 l 0,4.56574 4.5,0 c 4.44512,0 4.5,-0.0412 4.5,-3.37756 0,-6.82325 6.63109,-7.58227 7.19257,-0.82328 0.29761,3.58268 0.44313,3.71066 4.55743,4.00834 l 4.25,0.3075 0,-60.64084 c 0,-35.97202 -0.3699,-60.50523 -0.90929,-60.30749 -0.71463,0.26197 -111.49329,101.0997 -128.590706,117.05137 l -4,3.73195 7.249996,0.025 7.25,0.025 0,-3.37756 z m 43.2,-21.82244 c -3.2044,-3.2044 -1.35895,-5.38023 24.94659,-29.41272 25.11658,-22.94627 29.47534,-26.16535 32.00437,-23.63632 1.40697,1.40697 1.1906,51.13256 -0.22994,52.84421 -1.57605,1.89902 -54.83451,2.09134 -56.72102,0.20483 z m 49.62937,-6.69455 c 0.90016,-0.55632 1.14673,-5.33741 0.94442,-18.31224 l -0.27379,-17.55935 -17.5,15.93639 c -9.625,8.76501 -18.53648,16.9591 -19.8033,18.20909 l -2.30329,2.27271 18.85887,0.10315 c 10.37239,0.0567 19.40708,-0.23565 20.07709,-0.64975 z"
       id="path3595"
       inkscape:connector-curvature="0" />
    <path
       style="fill:#0d4973"
       d="m 515.21242,450.74911 c -7.16907,-7.5106 -10.25971,-13.00823 -10.25971,-18.25 0,-7.1481 5.96638,-15.63618 12.445,-17.70488 2.43683,-0.77811 4.51751,-3.51801 11.26442,-14.83331 l 8.2755,-13.8789 -5.84751,-6.04146 c -7.44477,-7.69168 -11.26107,-12.73458 -14.50342,-19.16495 -2.16294,-4.28964 -2.37689,-5.40591 -1.31456,-6.85874 2.15253,-2.94376 4.74107,-1.29868 9.02439,5.73524 4.60918,7.56902 15.32812,20.04064 16.56647,19.2753 0.44337,-0.27402 5.87933,-9.08774 12.07989,-19.58604 10.95749,-18.55234 11.27675,-19.26111 11.38056,-25.26504 0.12975,-7.50411 2.47358,-12.68954 7.59661,-16.80652 l 3.7152,-2.98562 -1.47921,-4.19254 c -2.47352,-7.01069 -1.99035,-16.65343 1.15677,-23.08591 2.71123,-5.54157 7.55246,-10.60663 10.1379,-10.60663 2.60663,0 8.2018,5.97681 10.41808,11.12868 3.12236,7.25811 3.64362,14.28307 1.58523,21.36368 -1.61467,5.5543 -1.61107,5.89129 0.073,6.83377 5.95028,3.32994 9.46444,10.31273 9.57738,19.03064 0.0777,6.00082 0.34678,6.59056 11.60624,25.44021 l 11.52667,19.29698 4.40572,-4.29698 c 4.6757,-4.56029 12.49464,-15.63868 14.19619,-20.11411 0.73942,-1.94474 1.72332,-2.68287 3.57619,-2.68287 2.8832,0 3.98858,1.89077 3.12258,5.3412 -0.89024,3.54699 -9.64228,16.45513 -15.45831,22.79901 -2.84399,3.10211 -5.1709,5.87529 -5.1709,6.1626 0,0.28732 6.525,11.44734 14.5,24.80005 7.975,13.35271 14.5,25.1186 14.5,26.14643 0,2.25897 -11.24556,17.27658 -14.06841,18.78732 -1.10393,0.59081 -2.88125,0.79676 -3.9496,0.45767 -1.2416,-0.39406 -7.60195,-10.60709 -17.62773,-28.3054 -8.62688,-15.22888 -15.94828,-27.98362 -16.26975,-28.34387 -0.32148,-0.36024 -3.73451,0.17632 -7.58451,1.19236 -3.85,1.01603 -8.6875,1.87328 -10.75,1.90498 -2.0625,0.0317 -3.78248,0.39515 -3.82218,0.80765 -0.0397,0.4125 -0.2155,4.35 -0.39068,8.75 -0.40138,10.08128 -0.20587,9.25234 -2.46769,10.46283 -3.67736,1.96806 -5.06945,-1.06199 -5.06945,-11.03426 l 0,-8.92857 -3.81763,0 c -2.0997,0 -7.14985,-0.87485 -11.22256,-1.9441 -4.07272,-1.06926 -7.46895,-1.85676 -7.54718,-1.75 -0.0782,0.10675 -3.74617,6.5674 -8.15095,14.35698 -7.02863,12.4297 -8.06171,14.89583 -8.44193,20.15223 -0.50398,6.96744 -3.85496,12.28031 -9.41913,14.93367 -1.87034,0.8919 -3.40062,2.00875 -3.40062,2.48189 0,1.51695 -4.85079,5.76933 -6.5812,5.76933 -0.91967,0 -4.57149,-3.0375 -8.11517,-6.75 z m 137.0626,-7.91411 c 1.99857,-2.56526 3.63377,-4.97871 3.63377,-5.36322 0,-1.00289 -26.97681,-45.97267 -27.57844,-45.97267 -1.1084,0 -8.32764,4.03901 -8.91347,4.98691 -0.62522,1.01163 27.40532,51.01309 28.59766,51.01309 0.34469,0 2.2619,-2.09885 4.26048,-4.66411 z m -122.97342,0.14795 c 6.30788,-2.99328 8.62617,-11.64741 4.51889,-16.86896 -4.63468,-5.89205 -11.6812,-6.94383 -17.23786,-2.57296 -5.94602,4.67714 -5.31717,14.26971 1.22404,18.67152 3.96488,2.66811 7.05883,2.87547 11.49493,0.7704 z m 21.13817,-42.10507 2.4024,-4.12123 -4.94567,-3.0744 -4.94566,-3.07439 -6.95809,11.60222 -6.95808,11.60223 3.87646,1.91792 c 2.13206,1.05486 4.41879,2.57139 5.08164,3.37007 0.99888,1.20358 1.9617,0.12101 5.62488,-6.32452 2.43084,-4.27717 5.50079,-9.63122 6.82212,-11.8979 z m 31.46902,-11.80734 c 0,-8.40613 1.58626,-11.39841 5.05764,-9.54058 2.47967,1.32708 3.21579,4.44826 2.71346,11.50519 l -0.40547,5.69635 5.06718,-0.60123 c 2.78696,-0.33067 6.94645,-1.17046 9.24332,-1.86619 l 4.17612,-1.26497 -10.63828,-18.76262 c -5.85105,-10.31943 -11.10531,-18.61319 -11.67612,-18.43056 -0.97935,0.31333 -21.53051,35.46506 -21.53551,36.83539 -0.003,0.88877 10.78187,3.63743 14.74766,3.75854 l 3.25,0.0992 0,-7.42857 z m -14.76656,-17.52059 c 6.68433,-11.58072 9.6424,-17.59223 8.79547,-17.87454 -0.70186,-0.23395 -2.65776,-1.65987 -4.34645,-3.16871 l -3.07033,-2.74335 -10.80607,17.96797 c -5.94333,9.88238 -10.80606,18.14137 -10.80606,18.35332 0,0.89329 7.6126,5.30593 8.83094,5.11885 0.73201,-0.11241 5.86314,-8.0565 11.4025,-17.65354 z m 52.88041,15.76502 c 2.13738,-1.20128 3.88615,-2.59615 3.88615,-3.09971 0,-0.8437 -18.14345,-31.706 -20.22638,-34.40538 -0.67956,-0.88069 -1.9269,-0.49152 -4.80768,1.5 -2.13952,1.47908 -3.90712,3.1002 -3.92799,3.6025 -0.0638,1.53609 19.32204,34.58673 20.28687,34.58673 0.49658,0 2.65164,-0.98286 4.78903,-2.18414 z m -27.35471,-40.81046 c 11.93829,-7.27886 8.28796,-24.84811 -5.54822,-26.70394 -8.64371,-1.15936 -17.37641,7.71196 -15.8001,16.05092 1.95714,10.35358 12.89084,15.80961 21.34832,10.65302 z m -3.37055,-36.78995 c 2.53506,-4.90227 2.90872,-9.69278 1.19972,-15.38113 -0.88145,-2.93388 -2.26725,-6.19804 -3.07957,-7.2537 -1.38851,-1.80447 -1.58832,-1.81857 -3.33755,-0.23555 -4.15494,3.76017 -5.34166,15.43067 -2.3291,22.90493 1.53276,3.80284 5.57167,3.78434 7.5465,-0.0345 z"
       id="path3608"
       inkscape:connector-curvature="0" />
    <path
       style="fill:#0c4a74"
       d="m 636.59913,858.05801 c -17.63552,-1.31548 -34.86498,-5.78938 -44.04245,-11.43634 -5.05734,-3.11181 -10.95755,-9.85813 -10.95755,-12.5289 0,-0.98148 -1.61825,-1.34996 -5.92857,-1.34996 -8.67839,0 -9.07143,-0.64991 -9.07143,-15 0,-13.15837 0.74542,-15 6.07143,-15 2.10309,0 2.94289,-0.49328 2.97939,-1.75 0.40561,-13.96836 5.61226,-29.2825 13.44217,-39.53703 4.30023,-5.63183 14.6447,-13.18115 22.33468,-16.29968 3.50182,-1.4201 5.8075,-2.99156 6.02557,-4.1068 0.79098,-4.04517 3.17901,-5.30639 10.05175,-5.30877 l 6.59501,-0.002 0.11025,-3.07226 c 0.22074,-6.15092 1.33831,-6.45382 22.67819,-6.14658 21.04509,0.303 21.71156,0.4999 21.71156,6.41453 0,2.75438 0.11209,2.80887 5.77749,2.80887 6.88468,0 10.21349,1.88721 10.24231,5.8067 0.0173,2.34739 0.91485,3.11375 6.98874,5.96699 17.82062,8.37131 29.10219,26.36507 30.23653,48.22631 0.33057,6.37085 0.39606,6.50663 3.2961,6.83366 5.78397,0.65225 6.45883,2.23694 6.45883,15.16634 0,14.06379 -0.57467,15 -9.20742,15 -5.19112,0 -5.62821,0.18895 -6.76052,2.92259 -4.11964,9.94571 -20.2203,17.94041 -42.53206,21.11908 -7.85087,1.11848 -37.64074,1.93436 -46.5,1.27353 z m 44.5,-8.40213 c 21.22581,-2.74187 35.60338,-9.63623 38.51903,-18.47073 1.42297,-4.31165 3.48294,-5.44234 9.91523,-5.44234 l 5.06574,0 0,-8 0,-8 -3,0 c -5.06637,0 -6.99772,-2.95975 -7.01478,-10.75 -0.0275,-12.58258 -4.26629,-25.00555 -11.57537,-33.92533 -3.38624,-4.13246 -14.75997,-12.32467 -17.11107,-12.32467 -0.83373,0 -1.30951,2.56906 -1.50834,8.1446 -0.22453,6.29641 -0.66853,8.38228 -1.95662,9.19201 -1.20659,0.7585 -2.10304,0.68484 -3.25,-0.26704 -1.29505,-1.0748 -1.58382,-3.66235 -1.58382,-14.19202 l 0,-12.87755 -4.48157,0 -4.48157,0 -0.26843,23.25 -0.26843,23.25 -3,0 -3,0 -0.26582,-27.75 -0.26582,-27.75 -14.96836,0 -14.96836,0 -0.26582,27.63588 c -0.25967,26.99665 -0.31415,27.65375 -2.35513,28.40833 -4.65054,1.71938 -4.89929,0.55625 -5.08084,-23.75737 l -0.17015,-22.78684 -4.57985,-0.30479 -4.57985,-0.30479 0,12.93234 c 0,13.84506 -0.73656,16.0304 -4.95201,14.69247 -2.20338,-0.69932 -2.22505,-0.80058 -2.23141,-10.42795 -0.006,-9.61143 -0.0151,-9.61748 -7.9366,-5.45487 -15.52404,8.15765 -24.67069,23.78442 -26.26186,44.86759 -0.29057,3.85 -0.54851,7.08036 -0.57321,7.17857 -0.35901,1.42749 -3.84666,3.32143 -6.11634,3.32143 l -2.92857,0 0,8 0,8 5.46104,0 c 4.33013,0 5.8833,0.45323 7.5,2.18856 1.12143,1.20371 2.03896,2.76305 2.03896,3.46521 0,2.57023 6.33121,8.38362 12.33555,11.32664 15.5474,7.62054 51.06262,10.69191 80.16445,6.93266 z m -38.5,-13.07806 c -24.10168,-0.91585 -35.21799,-3.32178 -40.41598,-8.74732 -3.69779,-3.85965 -3.35534,-8.4414 0.6655,-8.90407 2.14401,-0.2467 2.95268,0.21802 3.67211,2.11026 0.56029,1.47365 2.48727,3.05269 4.90679,4.02079 8.39986,3.36096 17.19869,4.18533 44.67158,4.18533 34.52719,0 45.85813,-1.81905 49.91694,-8.01358 2.32479,-3.54807 5.95789,-3.07834 6.40572,0.82822 0.67608,5.89763 -5.12685,9.7635 -18.93022,12.61116 -8.65129,1.78478 -31.55524,2.64401 -50.89244,1.90921 z"
       id="path3621"
       inkscape:connector-curvature="0" />
    <path
       style="fill:#0b4a74"
       d="m 115.66794,992.92807 -2.36078,-1.9112 -0.27436,-56.0888 c -0.2581,-52.76631 -0.3786,-56.08879 -2.03416,-56.08879 -2.35953,0 -12.191477,-10.06199 -12.191477,-12.47673 0,-1.05261 1.18373,-3.14938 2.630507,-4.65949 2.53722,-2.64829 2.57842,-2.87626 1.16166,-6.42835 -1.29426,-3.24493 -1.93316,-3.72434 -5.375007,-4.03318 -5.20662,-0.46721 -6.41716,-2.43631 -6.41716,-10.43839 0,-7.74833 1.58085,-9.96386 7.1095,-9.96386 2.952457,0 3.623767,-0.45502 4.638827,-3.14419 1.06444,-2.82003 0.93239,-3.44654 -1.28077,-6.07673 -3.541617,-4.20898 -3.094967,-6.43738 2.38958,-11.92194 5.48456,-5.48455 7.71296,-5.9312 11.92194,-2.38958 2.59687,2.18512 3.2801,2.33637 5.96901,1.32142 2.52456,-0.95291 3.12775,-1.82662 3.57786,-5.18247 0.71349,-5.31948 2.73276,-6.60651 10.36518,-6.60651 7.31308,0 10.30887,2.03032 10.30887,6.98658 0,2.48552 0.60584,3.23972 3.61111,4.4954 3.46465,1.44762 3.73139,1.40761 6.57673,-0.98658 1.63108,-1.37247 3.76581,-2.4954 4.74383,-2.4954 2.09941,0 12.06833,10.21267 12.06833,12.36341 0,0.81573 -1.12978,2.8258 -2.51062,4.46684 -2.07829,2.46991 -2.34286,3.42494 -1.53639,5.5461 l 0.97422,2.5624 43.62541,0.28062 43.62542,0.28063 1.91098,2.36078 c 1.84471,2.27892 1.91098,5.05935 1.91098,80.17742 l 0,77.81664 -2.63486,2.07258 c -2.60759,2.05113 -3.34648,2.07258 -71.38921,2.07258 -66.19945,0 -68.84209,-0.071 -71.11515,-1.91121 z m 138.13922,-80.08879 c 0,-41.25 -0.3375,-75.00125 -0.75,-75.00279 -0.4125,-10e-4 -16.725,-0.11403 -36.25,-0.25 l -35.5,-0.24721 -0.2999,5.75 -0.29991,5.75 22.4932,0 c 26.75015,0 25.60661,-0.54583 25.60661,12.22251 0,6.58586 -0.32415,8.10164 -2.11564,9.89313 -2.08537,2.08537 -2.50854,2.10614 -29.57519,1.45157 l -27.45955,-0.66408 -3.92769,3.54844 c -4.65487,4.20539 -5.83009,4.33804 -9.68629,1.09326 -2.63554,-2.21766 -3.27177,-2.34654 -6.57672,-1.33222 -3.31707,1.01803 -3.66035,1.45764 -3.67423,4.70517 -0.027,6.31428 -2.74526,8.06979 -11.41218,7.37021 -7.03885,-0.56816 -9.57251,-2.6305 -9.57251,-7.79179 0,-3.03358 -1.31762,-4.4962 -4.05048,-4.4962 -1.03235,0 -1.327,111.28918 -0.29738,112.31881 0.37466,0.37465 30.53119,0.68119 67.01453,0.68119 l 66.33333,0 0,-75 z m -114.93915,61.05877 c -1.63729,-1.03598 -2.85133,-9.08905 -2.97647,-19.74367 -0.0856,-7.29169 1.07623,-12.1611 3.22818,-13.52944 0.65309,-0.41527 7.3052,-0.76193 14.78245,-0.77035 17.71977,-0.02 16.90499,-0.87105 16.90499,17.65844 0,18.14944 0.80713,17.33134 -17.07874,17.31094 -7.38169,-0.008 -14.06888,-0.42509 -14.86041,-0.92592 z m 24.72468,-16.85842 0.28553,-10.29965 -10.03553,0.17291 -10.03553,0.17291 0,9.71007 c 0,5.34054 0.31569,10.02576 0.70153,10.4116 0.38584,0.38584 4.77333,0.57334 9.75,0.41667 l 9.04847,-0.28486 0.28553,-10.29965 z m 20.46447,11.13737 c -1.70838,-0.68935 -1.58192,-5.05207 0.17502,-6.03803 0.78376,-0.43983 13.26559,-0.57469 27.73738,-0.29969 24.30785,0.46191 26.33866,0.63698 26.65756,2.29804 0.85851,4.47183 -0.54801,4.70663 -27.6924,4.62301 -14.09516,-0.0434 -26.19006,-0.30592 -26.87756,-0.58333 z m -0.05,-16.53772 c -1.44031,-1.44031 -1.57646,-4.4493 -0.23872,-5.27607 0.52871,-0.32676 12.69613,-0.59411 27.03872,-0.59411 14.34259,0 26.51001,0.26735 27.03872,0.59411 1.33774,0.82677 1.20159,3.83576 -0.23872,5.27607 -1.70814,1.70814 -51.89186,1.70814 -53.6,0 z m -46.32755,-25.45253 c -2.13867,-2.57512 -1.94765,-28.69182 0.22579,-30.87045 1.30799,-1.31113 4.16594,-1.61481 15.73765,-1.67224 9.96288,-0.0494 14.58613,0.30058 15.65176,1.18497 1.22549,1.01707 1.51235,4.07038 1.51235,16.09751 0,13.65076 -0.15529,14.92548 -1.93426,15.87756 -1.06805,0.5716 -8.17843,1.03518 -15.87755,1.03518 -11.74569,0 -14.15961,-0.26046 -15.31574,-1.65253 z m 26.12755,-15.34747 0,-10 -10,0 -10,0 0,10 0,10 10,0 10,0 0,-10 z m 21.25,10.96884 c -2.44266,-0.98183 -2.96534,-3.8535 -1.05,-5.76884 1.70814,-1.70814 51.89186,-1.70814 53.6,0 1.80186,1.80186 1.4457,4.59814 -0.73426,5.76482 -2.4061,1.2877 -48.61318,1.29129 -51.81574,0.004 z m -1.93435,-17.58864 c -0.34867,-0.90863 -0.17608,-2.37838 0.38354,-3.26612 0.88384,-1.40208 4.28692,-1.65104 25.90914,-1.8955 13.69042,-0.15478 25.93255,-0.0266 27.20473,0.28488 1.82288,0.44629 2.24671,1.14167 2,3.28142 l -0.31306,2.71512 -27.2752,0.26612 c -24.58926,0.23991 -27.33763,0.10343 -27.90915,-1.38592 z M 138.80716,875.8983 c 0,-4.38189 0.21617,-4.59239 8,-7.7902 6.9624,-2.86035 8.11903,-2.83547 11.00527,0.23679 l 2.35389,2.5056 2.33099,-2.18985 2.33099,-2.18985 -2.63887,-2.7544 c -2.88742,-3.01381 -2.86566,-3.64152 0.44182,-12.74852 2.21006,-6.08534 3.33131,-7.09163 7.92591,-7.11328 2.92686,-0.0138 3.25,-0.30787 3.25,-2.95781 0,-2.74687 -0.28257,-2.96295 -4.25,-3.25 -4.06457,-0.29408 -4.36745,-0.54747 -6.9418,-5.8075 -3.38265,-6.91159 -3.42805,-8.74358 -0.29763,-12.01104 l 2.51057,-2.62047 -2.33099,-2.18985 -2.33099,-2.18985 -2.35389,2.5056 c -2.90419,3.09137 -4.01527,3.10331 -11.33445,0.1218 -7.10556,-2.8945 -7.44644,-3.22524 -7.84952,-7.61619 -0.26833,-2.92303 -0.74942,-3.54973 -2.91832,-3.80166 -2.32802,-0.27042 -2.69055,0.14391 -3.5,4 -0.82408,3.92581 -1.38353,4.53685 -6.40298,6.99346 -6.91766,3.38562 -9.05823,3.43958 -12.00527,0.30259 l -2.35389,-2.5056 -2.33099,2.18985 -2.33099,2.18985 2.51057,2.62047 c 3.12821,3.26516 3.07969,5.09476 -0.31857,12.01104 -2.5808,5.25257 -2.89287,5.51383 -6.93662,5.8075 -3.949987,0.28685 -4.234237,0.50503 -4.234237,3.25 0,2.68451 0.3006,2.9425 3.428567,2.9425 3.47342,0 6.57143,2.08492 6.57143,4.42249 0,0.7038 1.05117,3.25915 2.33594,5.67857 2.60802,4.91134 2.47692,6.25644 -0.97127,9.96469 l -2.38581,2.56576 2.33099,2.18985 2.33099,2.18985 2.35389,-2.5056 c 2.97323,-3.16486 5.54655,-3.15575 11.91351,0.0422 5.63957,2.83259 6.99803,4.64045 6.53899,8.70219 -0.28549,2.52615 -0.0315,2.75 3.12099,2.75 3.32851,0 3.43178,-0.11859 3.43178,-3.94098 z m -6.5,-16.99034 c -4.39408,-1.05661 -6.96474,-2.64385 -9.86584,-6.09161 -7.56803,-8.99409 -4.74389,-22.84099 5.68854,-27.89124 10.98406,-5.31729 24.10915,1.03827 26.30387,12.73713 2.34989,12.526 -9.81465,24.20628 -22.12657,21.24572 z m 10.84107,-9.12233 c 1.43594,-1.1295 3.12346,-3.76477 3.75005,-5.85614 3.1136,-10.39229 -10.58358,-18.58161 -17.95507,-10.73503 -4.92351,5.24084 -4.36567,13.31463 1.15241,16.67917 4.20183,2.56198 9.7311,2.5247 13.05261,-0.088 z m 78.15489,11.30365 c -0.1189,-2.0625 -0.27914,-4.0875 -0.35607,-4.5 -0.0769,-0.4125 -11.79175,-0.75 -26.0329,-0.75 -22.73573,0 -25.96735,0.19371 -26.50264,1.58866 -0.34775,0.90622 0.35804,2.81551 1.64301,4.44467 l 2.25264,2.85601 24.60607,0.0553 24.60607,0.0553 -0.21618,-3.75 z"
       id="path3634"
       inkscape:connector-curvature="0" />
    <path
       style="fill:#0a4a76"
       d="m 346.34914,718.71817 -2.63486,-2.07258 0,-76.25311 0,-76.2531 2.31445,-2.17432 2.31445,-2.17431 75.73101,0 75.731,0 2.47296,2.47296 2.47295,2.47295 -0.26841,76.11566 -0.26841,76.11565 -2.36078,1.91139 c -2.27756,1.84401 -5.01379,1.91139 -77.61515,1.91139 -74.61861,0 -75.27661,-0.0175 -77.88921,-2.07258 z m 151.12163,-78.67742 0.25649,-73.25 -73.50649,0 -73.50649,0 0,73.50649 0,73.50649 73.25,-0.25649 73.25,-0.25649 0.25649,-73.25 z m -128.1741,56.4339 c -0.98993,-0.72385 -1.63255,-2.18635 -1.42804,-3.25 0.35892,-1.86676 1.86415,-1.95126 43.35874,-2.4339 23.6428,-0.275 43.77441,-0.33502 44.73691,-0.13337 2.26235,0.47397 2.3963,5.67138 0.16821,6.52638 -0.86998,0.33385 -20.35897,0.60699 -43.30887,0.60699 -32.92094,0 -42.10693,-0.27775 -43.52695,-1.3161 z m 104.65593,0.15442 c -1.43556,-1.43556 -1.74473,-23.49108 -0.35992,-25.67581 0.46628,-0.73562 1.92189,-1.18562 3.23469,-1 2.38134,0.3367 2.38691,0.36898 2.38691,13.83749 0,12.76391 -0.10969,13.51572 -2.01168,13.78832 -1.10642,0.15858 -2.56892,-0.26892 -3.25,-0.95 z M 368.87679,678.91834 c -0.73562,-0.46957 -1.18562,-1.92788 -1,-3.24068 l 0.33749,-2.38691 44.5,0 44.5,0 0,3 0,3 -43.5,0.24068 c -23.925,0.13237 -44.10187,-0.14352 -44.83749,-0.61309 z m 11.11207,-23.78168 c -5.66359,-2.00544 -13.81639,-9.5082 -16.86119,-15.51682 -7.32328,-14.45181 -3.56248,-31.44593 9.08661,-41.0601 8.77083,-6.66643 9.68169,-6.7716 58.4315,-6.74703 40.31282,0.0203 43.87454,0.16095 47.66396,1.88192 4.58926,2.08422 8.20261,7.07695 9.09309,12.56433 0.79186,4.87964 -2.0783,11.9805 -6.02783,14.91305 -1.7384,1.29077 -20.74209,9.83303 -42.23043,18.9828 l -39.06972,16.63594 -7.93028,-0.079 c -4.36166,-0.0434 -9.83173,-0.75223 -12.15571,-1.57514 z m 20.81562,-6.71703 c 8.81982,-3.15268 15.60217,-12.11057 16.5822,-21.90119 1.52241,-15.20913 -12.87927,-29.28446 -27.92174,-27.289 -20.90241,2.7728 -29.86334,26.26169 -16.19615,42.45421 5.91313,7.0057 18.30241,10.03646 27.53569,6.73598 z M 383.3706,633.50295 c -4.53022,-4.27255 -5.56554,-9.21071 -3.00945,-14.35418 2.48053,-4.99144 6.30602,-7.63075 11.06022,-7.63075 8.09808,0 13.29291,5.21351 13.29291,13.34072 0,3.50747 -0.61471,4.78201 -3.88235,8.04966 -3.48404,3.48403 -4.4001,3.88235 -8.9288,3.88235 -4.33179,0 -5.54013,-0.46561 -8.53253,-3.2878 z m 12.78698,-5.93471 c 2.06911,-2.95407 1.96333,-5.09952 -0.35487,-7.19746 -2.66937,-2.41575 -7.23034,-1.70864 -8.75054,1.35664 -2.92115,5.89009 5.35321,11.19783 9.10541,5.84082 z m 54.81718,-0.44469 10.76047,-4.54491 -2.96115,-3.37256 c -4.21869,-4.80483 -4.99617,-10.37244 -2.53666,-18.16533 l 0.71012,-2.25 -21.61663,0 c -11.88915,0 -21.61663,0.24464 -21.61663,0.54364 0,0.29901 1.15621,1.76151 2.56937,3.25 8.14602,8.58035 10.56582,23.26665 5.85586,35.5406 -0.44817,1.16793 1.87678,0.52029 8.73198,-2.4324 5.13854,-2.21328 14.185,-6.06935 20.10327,-8.56904 z m 26.58475,-12.72498 c 5.48842,-5.48492 1.39909,-15.00782 -6.44466,-15.00782 -2.85213,0 -4.28451,0.70569 -6.52727,3.21578 -3.12122,3.49324 -3.54062,6.35236 -1.47779,10.07415 3.00864,5.42825 9.91535,6.24937 14.44972,1.71789 z M 362.51127,583.05163 c -3.43682,-0.7859 -3.33592,-6.62518 0.13015,-7.53158 2.6933,-0.70431 5.07286,1.07124 5.07286,3.78521 0,2.60397 -2.45826,4.37401 -5.20301,3.74637 z m 119.70714,-1.25631 c -3.19069,-3.52568 0.43711,-8.17676 4.62824,-5.93373 2.65753,1.42227 2.15076,5.92614 -0.7881,7.00419 -1.55379,0.56997 -2.62607,0.27107 -3.84014,-1.07046 z"
       id="path3647"
       inkscape:connector-curvature="0" />
    <path
       style="fill:#094a76"
       d="m 543.4254,668.08379 c -1.05897,-0.19241 -2.9379,-1.28335 -4.1754,-2.42431 l -2.25,-2.07449 0,-71.37114 0,-71.37114 2.45455,-2.45455 c 2.19928,-2.19928 3.29124,-2.45454 10.5,-2.45454 l 8.04545,0 0,-5.42742 c 0,-4.67226 0.36661,-5.7158 2.63486,-7.5 2.60855,-2.05189 3.33293,-2.07258 72.54966,-2.07258 75.48119,0 74.76599,-0.0489 76.17469,5.20995 0.3374,1.25953 0.6196,33.698 0.6271,72.08551 l 0.014,69.79545 -2.4546,2.45454 c -2.1992,2.19929 -3.2912,2.45455 -10.5,2.45455 l -8.0454,0 0,4.94424 c 0,3.69809 -0.5671,5.59293 -2.25,7.51801 l -2.25,2.57377 -69.57461,0.23199 c -38.26603,0.12759 -70.44103,0.0746 -71.5,-0.11784 z m 138.57461,-61.65017 0,-54.5 -69.00001,0 -69,0 0,54.5 0,54.5 69,0 69.00001,0 0,-54.5 z M 559.75,648.85352 c -1.56551,-0.91182 -1.75,-2.94331 -1.75,-19.26959 0,-12.86135 0.35434,-18.60465 1.2,-19.45031 0.79691,-0.79691 5.13968,-1.2 12.92857,-1.2 9.32901,0 12.05007,0.3215 13.3,1.57143 1.29102,1.29102 1.57143,4.2895 1.57143,16.80355 l 0,15.23212 5.75,-0.0536 5.75,-0.0535 0.5,-24.16878 c 0.275,-13.29283 0.83158,-24.49941 1.23683,-24.9035 1.02085,-1.01792 25.06133,-0.5177 26.12926,0.54368 0.47634,0.47342 0.79167,11.44898 0.70072,24.39013 l -0.16535,23.52936 3.41828,0.64127 c 1.88005,0.3527 4.48977,0.48975 5.79927,0.30456 l 2.381,-0.33672 0.2641,-32.46414 c 0.1453,-17.85527 0.6688,-32.86873 1.1633,-33.36323 1.1636,-1.16364 26.085,-1.06025 27.2583,0.11308 1.4034,1.40345 1.1489,70.10621 -0.2661,71.81115 -0.9727,1.17208 -9.7487,1.39813 -53.29205,1.37273 -33.54192,-0.0196 -52.75151,-0.39382 -53.87756,-1.04969 z m 19.48469,-7.38408 c 0.91335,-1.28771 0.9763,-11.22376 0.12285,-19.38913 l -0.64245,-6.14669 -6.85755,0 -6.85754,0 0,13.55325 0,13.55325 6.75,-0.26743 c 3.7125,-0.14709 7.08061,-0.73355 7.48469,-1.30325 z M 620,621.23276 l 0,-21.29914 -7,0 -7,0 0,21.5093 0,21.5093 7,-0.21016 7,-0.21017 0,-21.29913 z m 41.00001,-8.54683 0,-29.75231 -7.5,0 -7.5,0 0,30.00223 0,30.00223 7.5,-0.24992 7.5,-0.24993 0,-29.7523 z m 41.7731,-21.50231 0.2731,-54.25 -3.7731,-0.16836 c -2.0752,-0.0926 -5.1231,-0.2051 -6.7731,-0.25 l -3,-0.0816 -0.2586,54.79589 -0.2585,54.79588 6.7585,-0.29588 6.7586,-0.29589 0.2731,-54.25 z m -20.9894,-56.88314 c 0.2832,-10.11613 0.2794,-10.1342 -2.2569,-10.77077 -3.1477,-0.79003 -130.29864,-0.73003 -133.33085,0.0629 C 544.11679,524.13632 544,524.70621 544,534.30815 l 0,10.14129 68.75,-0.008 68.75001,-0.008 0.2837,-10.13314 z m -127.01796,2.88314 c -1.78752,-2.02571 -0.87733,-5.60947 1.67325,-6.58822 1.59855,-0.61342 5.561,2.42685 5.561,4.26679 0,1.36166 -2.9394,4.07143 -4.41644,4.07143 -0.70047,0 -1.96849,-0.7875 -2.81781,-1.75 z m 15.77792,0.40559 c -1.36949,-1.0014 -1.66464,-2.03747 -1.15682,-4.0608 0.58883,-2.34607 1.12016,-2.67402 3.89746,-2.40559 2.48174,0.23986 3.29027,0.83691 3.54245,2.61584 0.35292,2.48953 -1.34382,5.19496 -3.25808,5.19496 -0.65253,0 -2.01379,-0.60498 -3.02501,-1.34441 z M 586.2,537.73362 c -3.55202,-3.55202 0.57026,-9.05007 4.64539,-6.19574 2.55234,1.78773 2.7405,3.66699 0.58318,5.82431 -1.87901,1.87901 -3.59881,2.00119 -5.22857,0.37143 z m 116.72441,-18.05 c -0.1078,-5.0875 -0.408,-9.8125 -0.6672,-10.5 -0.3706,-0.98322 -15.0678,-1.25 -68.8642,-1.25 l -68.39301,0 0,4 0,4 58.56574,0 c 42.60757,0 59.16097,0.31699 60.74997,1.16334 3.3528,1.78569 4.6177,3.98428 4.6525,8.08666 l 0.032,3.75 7.0602,0 7.0602,0 -0.196,-9.25 z"
       id="path3660"
       inkscape:connector-curvature="0" />
    <path
       style="fill:#0a4b74"
       d="m 338.85617,1025.0288 c -2.0722,-0.901 -3.4941,-2.3978 -4,-4.2108 -1.0104,-3.6214 -1.0322,-137.92913 -0.023,-141.53408 0.419,-1.49662 1.6455,-3.19404 2.7255,-3.77204 1.3301,-0.71186 30.0976,-1.04568 89.1675,-1.03472 l 87.2038,0.0162 2.3207,2.18017 2.3207,2.18017 -0.032,71.07569 c -0.034,76.66891 0.1963,73.42201 -5.3648,75.53641 -1.8158,0.6903 -30.9984,1.0261 -86.9185,1.0001 -69.8352,-0.033 -84.7329,-0.2774 -87.4001,-1.4371 z m 171.1646,-6.1427 c 1.3745,-0.5274 1.5506,-6.7721 1.5506,-54.98803 l 0,-54.39301 -85,0 -85,0 0,54.41667 c 0,42.60087 0.2714,54.52487 1.25,54.91497 1.7938,0.7151 165.3388,0.7634 167.1994,0.049 z m -109.2462,-15.4979 c -1.2633,-0.4693 -2.7605,-2.1835 -3.3273,-3.80927 -1.5288,-4.38562 -5.4757,-4.51225 -9.5116,-0.30517 -3.5262,3.67574 -4.7222,3.55554 -12.3157,-1.23801 -4.3217,-2.72818 -4.726,-4.01548 -2.8715,-9.14386 1.6145,-4.46477 -0.2565,-6.79791 -4.8531,-6.05198 -4.3347,0.70342 -6.9376,-1.57385 -8.4511,-7.3939 -1.588,-6.10653 -0.5986,-9.72545 2.8923,-10.57969 4.8549,-1.188 5.867,-6.06181 1.8106,-8.71961 -3.7178,-2.43605 -3.9728,-4.92473 -1.0877,-10.61818 3.2176,-6.34969 6.4811,-8.1516 10.5423,-5.82083 2.6178,1.50243 2.9327,1.49559 4.3722,-0.0951 0.9078,-1.00301 1.4914,-3.30622 1.407,-5.5519 -0.1752,-4.66004 1.3713,-6.00515 8.8208,-7.67228 4.74,-1.06077 5.5843,-0.99905 7.276,0.53189 1.0525,0.95255 2.1878,2.82378 2.5227,4.15831 0.8102,3.22823 6.0943,3.50336 7.0891,0.36912 0.3591,-1.13151 1.7972,-2.49232 3.1957,-3.02404 2.0672,-0.78594 3.4908,-0.43111 7.6122,1.89734 6.4816,3.66184 7.4784,5.21422 5.9494,9.26498 -0.9739,2.58011 -0.9065,3.55253 0.3823,5.51949 1.3334,2.03496 2.1135,2.29982 5.2815,1.79322 4.8072,-0.76869 6.5459,0.94679 8.1288,8.02009 1.4922,6.66763 0.9799,8.12146 -3.5246,10.00357 -4.4474,1.85825 -4.6482,4.65981 -0.5435,7.58263 3.8984,2.77588 3.9045,6.18226 0.022,12.30422 -3.1538,4.97298 -5.8569,5.9249 -10.2096,3.59539 -3.1891,-1.70678 -6.3218,1.92726 -5.9616,6.91578 0.1634,2.2635 -0.2613,4.27346 -1.037,4.90719 -2.4812,2.0271 -11.2075,4.0535 -13.6106,3.1606 z m 6.6211,-11.9991 c -0.1167,-2.97803 0.3166,-4.38341 1.5673,-5.08333 0.9508,-0.53206 3.282,-2.33129 5.1807,-3.9983 3.3825,-2.9699 5.1696,-3.22697 9.5487,-1.37354 1.0573,0.44751 1.8514,0.0854 2.2838,-1.04145 0.6296,-1.64076 0.2199,-2.1662 -3.376,-4.32947 -1.0532,-0.63358 -1.4053,-2.40034 -1.2392,-6.21787 0.3166,-7.27781 0.8143,-8.43337 4.2436,-9.85385 1.8835,-0.78014 2.9668,-1.95553 2.9668,-3.21884 0,-1.7325 -0.4527,-1.90505 -3.4985,-1.33364 -3.1919,0.5988 -3.8506,0.27984 -7.5148,-3.63871 -4.5315,-4.84597 -5.8145,-8.23985 -4.133,-10.9324 1.4791,-2.36836 1.4556,-2.52997 -0.475,-3.27081 -1.0198,-0.39134 -2.4905,0.31573 -3.9642,1.90595 -2.1551,2.32539 -2.8069,2.47632 -8.1287,1.88238 -6.2184,-0.694 -9.2858,-2.5454 -9.2858,-5.6047 0,-1.41007 -0.5886,-1.83036 -2.2339,-1.59501 -1.961,0.28052 -2.1968,0.82652 -1.9307,4.4701 0.2945,4.0321 0.146,4.25491 -5.2055,7.80702 -5.3603,3.55796 -5.5901,3.61436 -8.531,2.09358 -2.8482,-1.47285 -3.0841,-1.44734 -4.0958,0.44299 -0.5904,1.10322 -0.6925,2.00586 -0.2268,2.00586 0.4656,0 1.8432,0.92845 3.0612,2.06323 1.9204,1.78917 2.1367,2.75218 1.6281,7.25 -0.9845,8.7068 -1.2907,9.43015 -4.4596,10.53482 -1.9404,0.67645 -3.006,1.73177 -3.006,2.97709 0,1.6885 0.5491,1.86729 4.4012,1.43311 3.8743,-0.43669 4.5477,-0.21248 5.6249,1.87284 0.6731,1.3029 2.0005,3.26891 2.9499,4.36891 2.6466,3.0668 2.9962,4.99971 1.4449,7.98988 -1.7462,3.36571 -1.755,3.16795 0.1734,3.90793 1.0201,0.39144 2.6309,-0.49791 4.4723,-2.46913 1.5829,-1.69451 3.2708,-2.83819 3.7508,-2.54152 0.4801,0.29668 3.2954,0.75957 6.2564,1.02865 5.3045,0.48204 7.9262,2.22694 7.9262,5.27532 0,0.71988 0.8968,1.30887 1.9928,1.30887 1.6938,0 1.9686,-0.61767 1.8315,-4.11596 z m -14.5814,-10.73372 c -1.2415,-0.35768 -3.8754,-1.94408 -5.8533,-3.52535 -14.2666,-11.4059 -2.6471,-33.99205 15.1782,-29.50359 15.4234,3.88366 17.473,24.83955 3.1095,31.79279 -4.3001,2.08162 -8.166,2.46595 -12.4344,1.23615 z m 12.2646,-10.34165 c 5.4148,-6.43513 1.1409,-15.80867 -7.2081,-15.80867 -5.015,0 -7.9689,2.16469 -9.3797,6.87382 -3.0139,10.05929 9.8234,16.97393 16.5878,8.93485 z m 48.5772,25.34962 c -0.7067,-1.32051 -0.6451,-2.37716 0.2064,-3.54164 1.0739,-1.46877 3.5708,-1.62842 21.7112,-1.38814 l 20.4977,0.27149 0,3 0,3 -20.704,0.27015 c -19.4009,0.25314 -20.7675,0.15169 -21.7113,-1.61186 z m 0.582,-14.82496 c -1.0152,-1.01522 -0.7949,-5.13604 0.3111,-5.81961 1.3775,-0.85134 39.5299,-0.936 40.8976,-0.0907 1.6807,1.03876 1.3564,5.27411 -0.4572,5.97004 -2.1598,0.82879 -39.9184,0.77349 -40.7515,-0.0597 z m 2.0833,-26.04958 c -1.5125,-0.22913 -2.8033,-0.94921 -2.8685,-1.60017 -0.2307,-2.30499 0.3329,-4.19287 1.4685,-4.91827 0.6325,-0.40408 9.7574,-0.74158 20.2776,-0.75 15.5147,-0.0124 19.3551,0.25894 20.3325,1.43665 1.7973,2.16558 0.8576,4.86901 -1.9653,5.65451 -2.6509,0.73762 -32.6047,0.88019 -37.2448,0.17728 z m -2.3581,-17.70498 c -0.3086,-0.80407 -0.4047,-2.27573 -0.2136,-3.27036 0.3184,-1.65671 1.9403,-1.83223 19.3346,-2.09239 22.5342,-0.33703 23.7294,-0.15396 23.3002,3.56886 l -0.3131,2.71512 -20.7736,0.27036 c -17.4769,0.22746 -20.8626,0.0384 -21.3345,-1.19159 z m 57.6081,-45.07877 0,-10.5 -85,0 -85,0 0,10.5 0,10.5 85,0 85,0 0,-10.5 z m -159.8,3.3 c -2.8599,-2.85993 -0.2282,-7.22544 3.995,-6.62676 1.7016,0.24122 2.3914,1.08369 2.6351,3.21825 0.4668,4.08964 -3.7705,6.26806 -6.6301,3.40851 z m 15.8399,-0.25196 c -1.5546,-1.87318 -1.0116,-4.5366 1.2101,-5.93574 3.4649,-2.18203 7.3666,2.7349 4.7101,5.93574 -1.5446,1.86114 -4.3756,1.86114 -5.9202,0 z m 14.7916,-1.01843 c -1.4701,-3.22665 0.4634,-5.75091 4.0829,-5.33017 2.0203,0.23485 2.6578,0.93271 2.9157,3.19205 0.552,4.83579 -4.997,6.53106 -6.9986,2.13812 z"
       id="path3673"
       inkscape:connector-curvature="0" />
    <path
       style="fill:#0b4a75"
       d="m 585.20685,240.56758 c -2.34407,-0.86918 -4.11997,-5.08214 -3.41284,-8.09624 0.63334,-2.69959 -0.10419,-3.70441 -4.36246,-5.94342 l -3.35262,-1.76282 -3.43142,3.01282 c -5.30384,4.65683 -8.01069,4.11017 -14.77784,-2.98449 -6.39483,-6.70431 -6.57996,-8.23846 -1.61153,-13.35444 l 2.76951,-2.85175 -2.06945,-4.89825 c -2.00432,-4.74409 -2.19995,-4.89825 -6.21599,-4.89825 -6.15149,0 -7.45652,-1.98275 -7.45652,-11.32874 0,-9.39266 1.60521,-11.66553 8.25,-11.68143 3.98649,-0.01 4.351,-0.25076 5.8789,-3.89033 l 1.6289,-3.88016 -3.0039,-3.0039 c -4.50504,-4.50504 -4.02006,-7.37047 2.33694,-13.80742 6.27943,-6.35842 8.86064,-6.81662 13.43334,-2.38458 l 3.11939,3.02343 3.92822,-1.63582 c 4.69221,-1.95398 5.38658,-2.89832 5.22824,-7.11027 -0.20103,-5.34732 1.40602,-6.30274 10.57241,-6.28547 4.47016,0.008 8.66191,0.35508 9.315,0.77035 1.55926,0.99147 3.38217,5.85405 2.79501,7.45566 -0.66395,1.81107 0.50237,3.02031 4.85594,5.03466 l 3.8384,1.77597 3.4464,-3.02597 c 4.9554,-4.35089 7.0452,-3.92966 13.6581,2.75302 6.2278,6.2935 6.86517,8.49372 3.6461,12.58614 l -2.0725,2.63486 24.56587,0 24.566,0 -3.4529,-4.52353 c -4.135,-5.41721 -5.5242,-9.94221 -5.5185,-17.97647 0,-5.95664 2.367,-12.51291 6.5773,-18.25 l 1.6513,-2.25 -66.98717,0 c -66.25482,0 -67.01588,-0.0227 -69.62193,-2.07258 -2.62896,-2.06794 -2.63486,-2.1049 -2.63486,-16.5 0,-13.094093 0.18483,-14.612253 2,-16.427423 1.97016,-1.97016 3.33333,-2 91.37759,-2 96.12677,0 92.76687,-0.18139 91.14757,4.92077 -0.5864,1.84741 -1.6164,2.04037 -12.2673,2.29799 l -11.6271,0.28124 -0.094,3.5 c -0.1164,4.342663 -1.1,6.000003 -3.5608,6.000003 -2.349,0 -3.9762,-2.8565 -3.9762,-6.979953 l 0,-3.11143 -6.75,0.29569 c -6.1945,0.27136 -6.7265,0.46774 -6.4641,2.38629 0.45,3.29104 -1.5294,7.409403 -3.5611,7.409403 -2.8294,0 -4.2248,-2.04779 -4.2248,-6.200003 l 0,-3.8 -7,0 -7,0 -0.171,4.25 c -0.094,2.337503 -0.2713,4.925003 -0.3937,5.750003 -0.1225,0.825 -0.2705,2.03218 -0.329,2.68261 -0.1601,1.78124 -4.0016,2.6492 -5.6543,1.27756 -0.9935,-0.82452 -1.452,-3.23282 -1.452,-7.62642 l 0,-6.421373 -7.25,0.29381 c -6.8236,0.27653 -7.23617,0.42476 -7.01587,2.52056 0.36347,3.45795 -1.4774,7.273253 -3.5093,7.273253 -2.8294,0 -4.2248,-2.04779 -4.2248,-6.200003 l 0,-3.8 -7,0 -7,0 0,3.87755 c 0,7.612383 -6.6466,8.372233 -7.1949,0.82254 l -0.3051,-4.20009 -6.74999,-0.29569 -6.75,-0.29569 0,5.9639 c 0,7.113643 -0.64138,9.127483 -2.90699,9.127483 -3.04259,0 -4.09301,-2.24448 -4.09301,-8.74569 l 0,-6.345693 -6.75,0.29569 c -6.70315,0.29364 -6.74801,0.31475 -6.46276,3.04184 0.3783,3.616643 -1.3809,6.753853 -3.78724,6.753853 -2.36953,0 -4,-2.8424 -4,-6.973193 l 0,-3.10468 -8.75,0.28894 -8.75,0.28893 -0.28383,10.750003 c -0.25735,9.74685 -0.11737,10.75254 1.5,10.77723 0.98111,0.015 35.83707,0.0291 77.45772,0.0313 82.48867,0.004 81.70707,-0.0452 90.16307,5.71868 13.7539,9.37496 15.9428,30.98331 4.3618,43.05791 -4.0945,4.269 -10.2367,7.85826 -14.6988,8.58942 -3.7937,0.62163 -29.1284,1.35163 -57,1.64241 -13.0893,0.13656 -16.12597,0.38182 -12.0485,0.97313 7.0076,1.01621 8.0485,2.49431 8.0485,11.42855 0,9.26053 -1.4765,11.53138 -7.4977,11.53138 -2.41127,0 -4.66237,0.45 -5.00227,1 -0.4085,0.66106 14.78207,1 44.81857,1 48.7359,0 48.7673,0.003 47.1966,4.95201 -0.6403,2.01761 -1.2608,2.04983 -41.8326,2.17233 -22.6504,0.0684 -43.7701,0.14258 -46.93257,0.16486 -6.4453,0.0454 -7.1416,1.0548 -3.25,4.7108 3.88927,3.65383 3.2325,6.57182 -2.8478,12.65217 -6.405,6.40495 -9.7093,6.98519 -14.0396,2.46534 l -2.7616,-2.88249 -4.6755,1.97557 c -4.54497,1.92042 -4.67821,2.10031 -4.77284,6.44412 -0.1385,6.35754 -1.76205,7.56527 -10.37559,7.71822 -3.93561,0.0699 -8.03326,-0.19835 -9.1059,-0.59609 z m 12.07884,-10.9481 c 0,-4.42004 2.13914,-7.82874 4.91294,-7.82874 0.88164,0 3.71625,-1.125 6.29925,-2.5 2.5829,-1.375 5.1512,-2.5 5.7072,-2.5 0.5561,0 2.6221,1.41458 4.5913,3.14352 l 3.5803,3.14352 2.9215,-2.79904 2.9216,-2.79904 -2.967,-3.37927 c -1.6319,-1.85861 -2.9671,-4.02543 -2.9671,-4.81517 0,-1.19738 -2.7822,-1.40799 -16.74999,-1.26793 -15.46896,0.15511 -17.07061,6.2e-4 -20.94207,-2.02008 -12.19165,-6.36342 -14.92429,-22.53751 -5.50488,-32.58261 5.3241,-5.67775 8.99428,-6.57379 27.19694,-6.63989 l 16.5,-0.0599 2.6652,-3.85624 2.6651,-3.85623 -2.9198,-2.79742 -2.9199,-2.79741 -3.4307,3.32513 c -3.7431,3.62797 -3.7086,3.62846 -12.7377,-0.18146 -7.77285,-3.27981 -8.82219,-4.33638 -8.82219,-8.88292 0,-3.85714 -0.0211,-3.87755 -4,-3.87755 -3.79684,0 -4,0.15571 -4,3.06574 0,1.68616 -0.46774,3.93972 -1.03942,5.00792 -1.00663,1.88089 -12.87742,7.92634 -15.5641,7.92634 -0.72979,0 -2.84756,-1.33517 -4.70616,-2.96705 l -3.37928,-2.96704 -2.84261,2.96704 -2.84261,2.96705 2.68709,2.80472 c 3.20412,3.34438 3.38396,6.40552 0.68709,11.69528 -1.1,2.15759 -2,4.44763 -2,5.089 0,2.50666 -2.67703,3.57728 -10.75,4.29922 -0.77304,0.0691 -1.25,1.63806 -1.25,4.11178 l 0,4 4.17126,0 c 4.42004,0 7.82874,2.13914 7.82874,4.91294 0,0.88164 1.125,3.71628 2.5,6.29921 3.20701,6.02434 3.15137,6.97638 -0.66142,11.31891 l -3.16141,3.60065 2.59556,2.59556 2.59556,2.59556 3.60065,-3.16141 c 1.98036,-1.73878 4.20947,-3.16142 4.95358,-3.16142 2.56618,0 14.62057,6.21199 15.59784,8.03804 0.5388,1.00676 0.97964,3.43506 0.97964,5.39622 0,3.49336 0.0812,3.56574 4,3.56574 l 4,0 0,-4.17126 z m 4.84592,-30.95685 c 1.21502,-0.75454 3.14405,-3.29919 4.28677,-5.65477 2.5195,-5.19384 1.9555,-9.77046 -1.74618,-14.16962 -7.91699,-9.40881 -23.71984,-3.85981 -23.71984,8.32897 0,11.3707 11.40873,17.56299 21.17925,11.49542 z m 24.53507,-1.02658 c 0.9367,-4.68375 2.3757,-5.84531 7.2415,-5.84531 2.4076,0 4.43377,-0.45 4.50247,-1 0.162,-1.29558 0.1615,-5.78203 -6e-4,-6.75 -0.069,-0.4125 -1.99787,-0.85833 -4.28607,-0.99074 -4.1964,-0.24283 -7.8383,-2.49296 -7.8383,-4.84282 0,-2.16112 -2.9989,-4.40801 -5.3065,-3.97585 -1.2064,0.22593 -3.8557,0.44423 -5.8873,0.4851 l -3.6937,0.0743 2.0566,4.64939 c 2.3665,5.34983 2.1741,11.95172 -0.5048,17.32164 -0.9153,1.83494 -1.6643,3.49211 -1.6643,3.68261 0,0.1905 3.3188,0.34636 7.375,0.34636 l 7.375,0 0.631,-3.15469 z m 83.68347,-33.59531 c 12.8085,-6.49504 15.9668,-22.31116 6.5882,-32.99275 -10.5442,-12.00917 -30.0165,-8.54391 -36.3042,6.46063 -3.2583,7.7753 -0.4057,18.75747 6.2521,24.06984 7.3106,5.83324 15.1864,6.65972 23.4639,2.46228 z m -14.7498,-8.71366 c -8.4067,-3.65632 -8.262,-17.57129 0.2196,-21.11512 4.3568,-1.82038 5.8906,-1.78797 10.1086,0.21362 8.5051,4.03592 8.3923,17.36336 -0.1772,20.94394 -4.1777,1.74558 -6.058,1.73772 -10.151,-0.0424 z m 9.1853,-10.53634 c 0,-1.24083 -0.9209,-2.86749 -2.0464,-3.6148 -1.7452,-1.15876 -2.3707,-1.13157 -4.25,0.18473 -1.212,0.84891 -2.2036,2.39244 -2.2036,3.43007 0,1.03763 0.9916,2.58116 2.2036,3.43007 1.8793,1.3163 2.5048,1.34349 4.25,0.18473 1.1255,-0.74731 2.0464,-2.37397 2.0464,-3.6148 z"
       id="path3686"
       inkscape:connector-curvature="0" />
    <path
       style="fill:#0d4973"
       d="m -175.72807,262.58007 c -2.90286,-1.40103 -3.63861,-3.80935 -3.7118,-12.14982 l -0.0602,-6.86051 -4.91096,-1.93601 c -2.70103,-1.06481 -6.22836,-2.87409 -7.83851,-4.02062 l -2.92754,-2.08459 -5.69049,5.63111 c -8.00169,7.9182 -10.07966,7.7979 -19.3278,-1.11888 -6.98148,-6.73134 -9.8047,-10.69767 -9.8047,-13.77458 0,-0.89314 2.51898,-4.26479 5.59774,-7.49255 l 5.59775,-5.86865 -3.59775,-7.19147 c -1.97876,-3.9553 -3.59774,-8.031 -3.59774,-9.05711 0,-1.65502 -0.84671,-1.86564 -7.5,-1.86564 -11.04006,0 -11.5,-0.65372 -11.5,-16.34501 0,-15.26549 0.36905,-15.79163 11.65002,-16.6087 l 7.54233,-0.54629 2.386,-5.87606 c 1.3123,-3.23183 2.94762,-6.55277 3.63404,-7.37986 1.04446,-1.2585 0.5024,-2.17889 -3.32297,-5.64222 -5.43059,-4.91663 -7.25733,-7.99985 -6.50818,-10.98469 0.30321,-1.20811 4.33649,-5.8912 8.96284,-10.40686 10.36203,-10.11412 11.56164,-10.30422 19.23408,-3.04794 l 5.45844,5.16236 4.7317,-2.12874 c 2.60243,-1.17081 6.38294,-2.78076 8.40113,-3.57768 l 3.66943,-1.44893 -0.1021,-7.22757 c -0.14456,-10.233808 0.87385,-10.941808 15.73916,-10.941808 9.92226,0 11.57066,0.2488 13.92667,2.10203 2.57631,2.026528 2.66197,2.412678 2.38485,10.749998 l -0.28744,8.64797 -3,0 -3,0 -0.29381,-7.25 -0.29381,-7.25 -8.84689,0 -8.84689,0 -0.38421,7.60853 c -0.43794,8.67244 -1.79512,10.51474 -9.17905,12.46014 -2.28544,0.60213 -6.03547,2.183 -8.33341,3.51305 -6.16805,3.57009 -8.34181,3.16675 -14.81431,-2.74875 l -5.65356,-5.16703 -6.11823,6.11823 -6.11824,6.11824 5.1912,5.48893 c 3.38206,3.57603 5.19121,6.35266 5.19121,7.96731 0,1.36311 -1.575,5.76485 -3.5,9.78165 -1.925,4.0168 -3.5,7.80873 -3.5,8.4265 0,1.9956 -3.80532,4.63729 -6.69162,4.64537 -1.54461,0.004 -4.94588,0.22559 -7.55838,0.49169 l -4.75,0.48382 0,8.90616 0,8.90616 7.87755,0 c 5.10774,0 8.22542,0.43951 8.8669,1.25 0.54413,0.6875 1.95301,4.1886 3.13083,7.78021 1.17783,3.59162 3.26272,8.18024 4.63311,10.19695 3.70812,5.45699 3.24836,7.45011 -3.22829,13.99506 l -5.71991,5.78022 6.41112,6.46861 6.41112,6.46862 5.73455,-5.46984 c 6.73291,-6.42211 8.63901,-6.72637 16.14817,-2.57762 2.87917,1.59072 6.88635,3.41374 8.90486,4.05116 5.28746,1.6697 6.20725,3.33785 6.80006,12.33276 l 0.52993,8.04087 4.5,0.41656 c 2.475,0.22912 6.39402,0.133 8.70893,-0.2136 l 4.20893,-0.63019 0.29107,-7.58978 c 0.22152,-5.77613 0.68922,-7.84001 1.95725,-8.6369 1.20638,-0.75815 2.10324,-0.68438 3.25,0.26734 1.22855,1.01962 1.58382,3.31597 1.58382,10.23747 0,8.14048 -0.21526,9.13827 -2.45455,11.37755 -2.31309,2.3131 -3.07665,2.45065 -13.25,2.38687 -5.9375,-0.0372 -11.79805,-0.55157 -13.02345,-1.143 z m 58.0796,-5.88177 c -1.73161,-0.50164 -4.59206,-2.55633 -6.35655,-4.56597 -3.0284,-3.44915 -3.18534,-4.01213 -2.80105,-10.04743 l 0.40711,-6.39354 -8.68176,-8.36924 -8.68176,-8.36924 -18.36879,-0.33334 c -16.94048,-0.30743 -18.707,-0.51365 -22.71821,-2.65211 -6.94662,-3.70339 -12.61676,-9.61236 -15.76516,-16.4292 -2.76135,-5.97883 -2.88529,-6.87101 -2.88216,-20.74748 0.003,-12.80774 0.27176,-15.16543 2.30376,-20.20163 3.05882,-7.58116 10.03796,-15.16146 17.58895,-19.10402 l 6.10402,-3.18707 18.677,-0.33059 18.67699,-0.33059 6.91327,-7.67305 6.91326,-7.67305 -0.44898,-6.09138 c -0.42177,-5.72235 -0.25502,-6.31228 2.75249,-9.73765 1.84432,-2.10056 4.85779,-4.14251 7.10871,-4.816898 10.40947,-3.11876 20.389084,7.095918 16.991244,17.391458 -2.371314,7.18513 -9.883784,11.38364 -16.977244,9.48811 -3.31617,-0.88616 -3.58877,-0.71308 -12,7.61916 l -8.60674,8.52592 -19,0.31291 c -18.41454,0.30326 -19.15776,0.39606 -24.11974,3.01148 -6.0729,3.20097 -9.76504,7.31171 -13.2901,14.79689 -2.35541,5.00152 -2.59016,6.63291 -2.59016,18 0,10.58211 0.32095,13.19044 2.09184,17 2.97024,6.38965 6.46759,10.16745 12.05423,13.02084 4.51882,2.308 6.14729,2.51368 23.58763,2.97916 l 18.73371,0.5 9.39228,9.35675 c 7.99678,7.96653 9.73052,9.2494 11.66876,8.63422 3.88656,-1.23355 9.81352,-0.69739 12.98214,1.17436 3.12194,1.84417 7.006304,8.47866 6.967454,11.90039 -0.0121,1.06386 -0.89688,3.86198 -1.966234,6.21805 -1.48428,3.27029 -2.95775,4.74375 -6.22804,6.22803 -4.71943,2.142 -5.80766,2.23544 -10.43217,0.89574 z m 9.20864,-8.97411 c 3.7077,-4.09697 0.75936,-10.93344 -4.71523,-10.93344 -3.32976,0 -6.84501,3.11505 -6.84501,6.06574 0,6.72522 7.15332,9.73728 11.56024,4.8677 z m -0.0902,-129.9003 c 2.36596,-2.61436 2.25517,-6.7524 -0.24779,-9.25536 -4.1036,-4.10357 -11.22225,-1.32696 -11.22225,4.37721 0,5.88913 7.62162,9.13057 11.47001,4.87815 z m 11.881564,107.87441 c -3.01758,-0.87418 -9.351604,-6.931 -9.351604,-8.94235 0,-0.53086 -3.15,-0.9652 -7,-0.9652 -7.88125,0 -7.35605,0.33899 -15.92461,-10.27835 -2.98353,-3.69691 -5.68353,-6.7375 -6,-6.75688 -0.31646,-0.0194 -8.00039,-0.24851 -17.07539,-0.50917 -20.94364,-0.60158 -21.96419,-0.7917 -25.86752,-4.81891 -8.35359,-8.61872 -7.11453,-28.23334 2.20335,-34.87971 2.96782,-2.11693 4.34318,-2.2788 22.16417,-2.60866 l 19,-0.35169 5.89116,-6.89831 5.89116,-6.89832 8.10884,-0.0385 c 7.97374,-0.0379 8.14216,-0.0906 10.10884,-3.16643 4.741944,-7.41617 13.712434,-9.62823 20.228694,-4.98824 3.84843,2.74032 6.63609,9.43519 5.79517,13.91771 -0.82635,4.40481 -5.8709,10.00118 -10.05688,11.15699 -6.46155,1.78412 -14.309174,-1.83493 -16.548334,-7.63151 -0.77524,-2.00689 -1.55742,-2.25 -7.23903,-2.25 l -6.36987,0 -6.46622,7 -6.46623,7 -18.67287,0 -18.67288,0 -3.26577,2.91797 c -3.21214,2.87004 -3.26578,3.06035 -3.26578,11.58658 0,8.25833 0.1328,8.78284 2.80576,11.08203 2.74631,2.36227 3.20194,2.41409 21.5,2.44522 13.15152,0.0224 19.14632,0.39299 20.219,1.25 0.83861,0.67001 4.35502,4.7057 7.81423,8.9682 l 6.28948,7.75 5.18577,-0.0385 c 4.6974,-0.0349 5.3741,-0.33308 7.18576,-3.16643 3.16518,-4.9502 6.831964,-7.12838 12.000004,-7.12838 14.5548,0 19.33896,20.41726 6.18368,26.38995 -4.6173,2.09633 -5.71968,2.18712 -10.33208,0.85093 z m 8.8984,-8.71454 c 2.34722,-2.01591 2.25918,-7.42223 -0.15646,-9.60836 -4.90298,-4.43713 -12.742624,0.82405 -10.54391,7.07602 1.73815,4.94241 6.56434,6.08458 10.70037,2.53234 z m -0.0787,-66.848 c 2.44818,-2.21558 2.37322,-7.54228 -0.13812,-9.81502 -4.38173,-3.96538 -11.03318,-0.9099 -11.03318,5.06829 0,5.54902 6.99873,8.52282 11.17126,4.74673 z m -8.00194,40.6516 c -3.57068,-0.833 -8.782804,-5.20343 -9.717434,-8.14819 -0.514,-1.61949 -2.19031,-1.8269 -16.76151,-2.07393 l -16.19042,-0.27449 0,-3 0,-3 16.19038,-0.27449 c 14.93804,-0.25325 16.23738,-0.42253 16.79784,-2.18841 0.97896,-3.08443 6.975604,-7.71393 10.960184,-8.46144 8.56796,-1.60736 17.70595,7.45756 16.1074,15.9786 -1.49308,7.95877 -9.56047,13.26807 -17.38648,11.44235 z m 8.00194,-8.6516 c 2.27863,-2.06213 2.37042,-7.08898 0.17375,-9.51627 -2.06213,-2.27863 -7.08898,-2.37042 -9.51627,-0.17375 -2.62727,2.37764 -2.4081,7.8258 0.39377,9.78831 2.88806,2.02288 6.65055,1.98155 8.94875,-0.0983 z m -77.787264,-2.7866 c -0.30425,-0.79287 -0.39765,-2.25537 -0.20755,-3.25 0.29414,-1.53901 1.56109,-1.85149 8.50476,-2.09756 7.5245,-0.26667 8.21065,-0.12682 8.82155,1.79798 1.18863,3.74502 -1.09752,4.99117 -9.15663,4.99117 -5.52981,0 -7.54925,-0.36563 -7.96213,-1.44159 z"
       id="path3699"
       inkscape:connector-curvature="0" />
    <path
       style="fill:#171717"
       d="m -465.07936,646.13466 c -4.85077,-4.85077 -5.22752,-8.71252 -5.22752,-53.58201 0,-44.24475 -1.40042,-54.04767 -6.53439,-45.74073 -0.88847,1.43756 -5.00785,2.61375 -9.15418,2.61375 -11.90971,0 -15.6765,-7.99932 -15.6765,-33.29136 0,-18.68561 1.25499,-24.78549 9.10429,-44.25144 10.63108,-26.36462 14.46497,-31.25564 27.5803,-35.18508 l 9.69596,-2.90499 -4.09191,-10.41696 c -2.25052,-5.72933 -5.62901,-11.00682 -7.50773,-11.72775 -3.80421,-1.45983 -4.61424,-11.40546 -1.24271,-15.25785 1.19522,-1.36569 3.56268,-7.37458 5.261,-13.35311 5.2892,-18.61922 28.19576,-27.55009 44.27951,-17.26378 9.79895,6.26687 13.43555,11.33231 13.63027,18.98567 0.0915,3.59392 1.89312,8.81754 4.00375,11.60803 4.91353,6.49626 4.91329,13.55745 -5.2e-4,15.44304 -3.01026,1.15515 -11.8445,17.20725 -11.8445,21.52188 0,0.48781 4.64562,2.13787 10.32358,3.66679 12.12812,3.26576 17.4296,10.04169 27.14598,34.69516 5.88722,14.93775 6.96435,21.67925 6.96435,43.59372 0,20.0817 -0.92553,26.84892 -4.10725,30.0307 -4.74005,4.73981 -12.33537,5.28331 -19.58854,1.40162 -4.91078,-2.62823 -5.05558,-1.36571 -5.05558,44.08137 0,43.3755 -0.39502,47.28926 -5.41722,53.67396 -4.12126,5.23935 -7.7479,6.88688 -15.15978,6.88688 -5.35841,0 -11.02773,-1.28516 -12.59847,-2.85589 -2.06536,-2.06537 -4.33303,-2.06537 -8.19219,0 -8.39619,4.49351 -20.83425,3.38413 -26.59,-2.37162 z m 23.13501,-6.06593 c 1.73767,-2.09378 3.14923,-19.75075 3.58725,-44.87237 0.49094,-28.15745 1.67837,-41.738 3.70837,-42.41272 2.10896,-0.70095 3.48411,11.13709 4.68118,40.2983 0.93223,22.70996 2.64905,43.0551 3.81512,45.21145 1.1661,2.15635 4.8746,4.32639 8.24117,4.8223 11.88899,1.75132 12.94829,-3.82453 12.94829,-68.15615 0,-54.56287 -0.4515,-60.60596 -5.22751,-69.96773 -3.36534,-6.59659 -5.22751,-15.40487 -5.22751,-24.72655 l 0,-14.47979 -18.2963,0 -18.29629,0 0,14.47979 c 0,9.32168 -1.8622,18.12996 -5.22751,24.72655 -4.78553,9.38038 -5.22752,15.40486 -5.22752,71.25142 0,43.96307 0.87619,61.88084 3.13651,64.14116 4.16735,4.16735 13.80947,3.99228 17.38475,-0.31566 z M -478.8593,521.9542 c 0.71735,-21.99933 5.50413,-44.713 10.25374,-48.65481 3.88261,-3.22229 5.1088,-1.13168 7.09058,12.08925 0.64646,4.3127 0.99108,-2.35306 0.76583,-14.81278 -0.22531,-12.45973 -1.29635,-23.54015 -2.38019,-24.62318 -3.79311,-3.79024 -14.33732,9.74576 -21.1823,27.19253 -5.66103,14.429 -6.90529,21.86666 -6.90529,41.27727 0,24.60721 0.94451,27.86079 7.71383,26.57182 3.12437,-0.59495 4.18402,-4.93951 4.6438,-19.0401 z m 102.12652,-5.22989 c 0.6801,-20.33361 -0.15421,-25.95588 -6.21159,-41.79069 -8.16538,-21.34979 -18.08618,-33.6925 -22.05922,-27.44444 -1.3712,2.15634 -2.3442,13.33015 -2.1622,24.83068 0.23681,14.96292 0.78293,18.0977 1.92028,11.0219 0.87419,-5.43847 2.76561,-9.96367 4.20318,-10.05599 4.86124,-0.31213 11.34009,24.9211 11.55233,44.99263 0.21955,20.82751 1.31812,23.97513 7.92334,22.71352 3.22538,-0.61604 4.20789,-5.54903 4.83388,-24.26761 z m -38.87408,-64.66106 c 3.2449,-8.4571 -0.54495,-10.81975 -11.18424,-6.97254 -7.39594,2.6744 -10.71149,2.70239 -16.33982,0.13801 -8.84618,-4.03059 -13.18907,-0.56418 -9.02985,7.20741 2.49486,4.66163 5.35674,5.50812 18.62268,5.50812 13.84425,0 15.93832,-0.68679 17.93123,-5.88095 z M -428.342,436.95668 c 3.99905,-2.14022 12.92401,-15.08326 12.92401,-18.74246 0,-0.43078 -8.23334,-0.78324 -18.2963,-0.78324 -20.58748,0 -21.99797,1.73412 -11.52956,14.1751 7.37785,8.76806 9.34979,9.39233 16.90185,5.3506 z m 9.15283,-28.98415 c 11.39132,-2.86837 14.19776,-5.62465 8.99869,-8.83785 -1.43757,-0.88847 -2.61376,-4.56377 -2.61376,-8.16736 0,-7.63371 -4.29889,-16.66332 -7.93322,-16.66332 -1.38699,0 -2.5218,3.52857 -2.5218,7.84127 0,5.22751 -1.30688,7.84127 -3.92064,7.84127 -2.83156,0 -3.92063,-2.90417 -3.92063,-10.45503 0,-5.75026 -1.17619,-10.45502 -2.61376,-10.45502 -1.43756,0 -2.61375,4.70476 -2.61375,10.45502 0,7.55086 -1.08908,10.45503 -3.92064,10.45503 -2.61375,0 -3.92063,-2.61376 -3.92063,-7.84127 0,-14.25057 -8.74662,-7.94553 -11.82432,8.52356 -1.01038,5.40676 -3.15847,10.64714 -4.77351,11.64528 -1.61504,0.99817 2.34091,3.22208 8.79101,4.94204 15.41564,4.1107 18.99618,4.18893 32.78696,0.71638 z m -123.7213,221.02451 c -5.58991,-3.91533 -5.8091,-5.64119 -5.8091,-45.74073 0,-22.91956 -0.60406,-41.67191 -1.34234,-41.67191 -0.73829,0 -3.56339,1.38707 -6.27798,3.08235 -3.95551,2.47027 -6.28423,2.19877 -11.72644,-1.36712 -6.40956,-4.19968 -6.7908,-5.66811 -6.7908,-26.15555 0,-17.13991 1.4027,-25.23728 6.66806,-38.49263 6.95975,-17.52103 18.76235,-31.16227 26.96202,-31.16227 4.28436,0 4.49067,-0.97643 1.93295,-9.14815 -1.57481,-5.03148 -4.27038,-9.14815 -5.99013,-9.14815 -5.54934,0 -6.60671,-5.29406 -2.35376,-11.78488 2.28026,-3.48014 4.14594,-8.76047 4.14594,-11.73409 0,-8.57375 15.53525,-22.2518 25.05008,-22.05537 11.86983,0.24491 24.07586,10.00404 26.11631,20.88062 0.93573,4.98791 2.74419,9.71345 4.01878,10.50118 3.59768,2.2235 2.72892,14.19254 -1.03013,14.19254 -4.05718,0 -10.59917,16.12784 -7.36687,18.1614 1.26043,0.79296 0.33725,6.73463 -2.05149,13.20368 -4.31513,11.68594 -4.43562,11.77034 -18.65898,13.06878 l -14.3158,1.30688 -1.38754,14.37566 c -0.76316,7.90661 -2.8215,16.94477 -4.57407,20.08478 -2.20884,3.95744 -3.18654,21.70275 -3.18654,57.83602 0,44.37252 0.61583,52.63803 4.13972,55.56261 3.0013,2.49083 5.33737,2.68137 8.49471,0.69285 3.66896,-2.31071 4.46924,-8.56577 5.0802,-39.70821 1.21501,-61.93186 11.03669,-39.96593 11.03669,24.68327 0,11.6102 0.84874,14.06737 5.35295,15.49694 10.73517,3.40721 12.94335,-2.45108 12.94335,-34.33867 0,-24.69143 0.66535,-29.73817 3.92063,-29.73817 3.2672,0 3.92064,5.22751 3.92064,31.36507 0,27.88008 -0.58083,31.94591 -5.22752,36.59259 -5.6638,5.6638 -18.12729,6.96477 -22.72044,2.37162 -2.06536,-2.06536 -4.33303,-2.06536 -8.19219,0 -7.3887,3.9543 -13.95043,3.57131 -20.78091,-1.21294 z m -13.61069,-109.13039 c 0.0505,-20.57912 5.63976,-39.83887 11.41744,-39.3425 3.3047,0.28391 4.22542,-2.13664 4.22542,-11.10846 0,-8.0012 -1.08923,-11.47149 -3.6006,-11.47149 -5.13844,0 -8.04611,4.30755 -15.74221,23.32101 -10.41033,25.71899 -9.30338,62.1132 1.69996,55.89159 1.07817,-0.60963 1.97817,-8.39021 1.99999,-17.29015 z m 54.24457,-59.35226 c 0.60558,-3.18798 -2.33226,-3.96418 -15.0037,-3.96418 -13.48389,0 -15.75674,0.68488 -15.75674,4.74807 0,4.12785 1.95982,4.64566 15.00369,3.96418 10.90149,-0.56954 15.20961,-1.86774 15.75675,-4.74807 z m -4.24281,-19.55961 4.5654,-7.84126 -15.54153,0 c -8.54782,0 -15.5415,0.72351 -15.5415,1.60782 0,0.88431 2.48811,4.77094 5.52912,8.63698 7.01393,8.91675 14.92499,8.01082 20.98851,-2.40354 z m 7.40584,-18.26208 c 2.64591,-1.63527 -1.14934,-19.27384 -4.96896,-23.09345 -2.01342,-2.01343 -2.81695,-1.17671 -2.81695,2.93332 0,3.36884 -1.62369,5.75026 -3.92063,5.75026 -2.61376,0 -3.92063,-2.61376 -3.92063,-7.84127 0,-4.3127 -1.17619,-7.84127 -2.61376,-7.84127 -1.43757,0 -2.61376,3.52857 -2.61376,7.84127 0,5.22751 -1.30687,7.84127 -3.92063,7.84127 -2.17812,0 -3.92064,-2.32334 -3.92064,-5.22751 0,-7.77078 -4.8965,-6.32574 -6.64247,1.96031 -0.833,3.95331 -2.6102,9.21499 -3.94933,11.69264 -1.99382,3.68898 -0.9002,4.97223 6.03882,7.08577 8.00505,2.43824 28.62704,1.75516 33.24894,-1.10134 z m 123.16073,205.40435 c -4.963,-4.96285 -5.48628,-8.47822 -5.48628,-36.85128 0,-26.13756 0.65344,-31.36507 3.92064,-31.36507 3.25517,0 3.92063,5.04674 3.92063,29.73817 0,23.94475 0.80634,30.40745 4.13967,33.17382 2.99928,2.48908 5.33964,2.68085 8.49471,0.69604 3.61142,-2.2718 4.57825,-8.9409 5.66191,-39.05477 1.07792,-29.95681 1.99326,-36.31517 5.22752,-36.31517 3.26667,0 4.04139,6.18577 4.6449,37.09237 0.6754,34.59359 1.08001,37.20533 6.00642,38.76885 11.77314,3.73671 12.87248,-1.10368 12.87248,-56.6822 0,-46.90114 -0.51804,-53.0745 -5.22751,-62.306 -2.87513,-5.63572 -5.22751,-14.99838 -5.22751,-20.80591 l 0,-10.55916 -13.81187,0 -13.81188,0 -4.58871,-12.38063 c -2.52358,-6.80934 -3.55209,-12.72607 -2.28547,-13.1483 3.33516,-1.11168 -2.78338,-18.90493 -6.50067,-18.90493 -5.54926,0 -6.60679,-5.29406 -2.35369,-11.78488 2.28024,-3.48014 4.14594,-8.83745 4.14594,-11.90519 0,-8.80394 14.59522,-20.74379 25.3571,-20.74379 12.58654,0 23.70076,8.50059 25.80928,19.74014 0.93572,4.98791 2.74418,9.71345 4.01865,10.50118 3.68173,2.27538 2.70393,14.19254 -1.16443,14.19254 -1.91536,0 -4.74554,4.11667 -6.28975,9.14815 -2.52253,8.21924 -2.30585,9.14815 2.13387,9.14815 15.78735,0 33.77549,36.90352 33.77549,69.29204 0,16.09067 -0.93076,20.5063 -5.22752,24.80318 -5.9293,5.92939 -8.67218,6.36562 -15.85452,2.52181 -4.89739,-2.6211 -5.05553,-1.43576 -5.05553,37.89947 0,37.75837 -0.38474,40.98981 -5.48627,46.09137 -4.23089,4.23091 -7.37079,5.10362 -13.72222,3.81409 -4.5299,-0.91965 -10.00023,-1.67209 -12.15658,-1.67209 -2.15635,0 -7.62694,0.75244 -12.15658,1.67209 -6.35169,1.28953 -9.49134,0.41682 -13.72222,-3.81409 z m 75.49626,-112.31683 c -0.034,-13.71398 -1.81186,-21.4006 -8.52974,-36.8969 -10.06662,-23.22106 -17.56392,-27.77809 -17.56392,-10.67573 0,7.56813 1.09804,10.64666 3.79779,10.64666 5.03122,0 9.23806,15.81822 9.25636,34.8041 0.0261,18.23364 3.73506,27.20314 9.34496,22.54726 2.56331,-2.12739 3.72461,-8.54727 3.69455,-20.42539 z m -34.53949,-55.26583 c 0.60535,-3.18798 -2.33251,-3.96418 -15.00374,-3.96418 -13.48385,0 -15.75677,0.68488 -15.75677,4.74807 0,4.12785 1.95979,4.64566 15.00375,3.96418 10.90145,-0.56954 15.20944,-1.86774 15.75676,-4.74807 z m -4.80094,-18.00277 c 2.97288,-4.17522 5.40551,-7.99784 5.40551,-8.49471 0,-0.49688 -7.05715,-0.90339 -15.68254,-0.90339 -8.6254,0 -15.68254,0.72351 -15.68254,1.60782 0,4.21868 11.3897,15.38159 15.6943,15.38159 2.67283,0 7.29212,-3.4161 10.26527,-7.59131 z m 2.79175,-18.29797 c 6.65488,-1.87843 7.19541,-4.80361 3.78968,-20.50489 -1.58001,-7.28493 -6.40344,-7.77713 -6.40344,-0.65344 0,2.90417 -1.74259,5.22751 -3.92063,5.22751 -2.61376,0 -3.92064,-2.61376 -3.92064,-7.84127 0,-4.3127 -1.17619,-7.84127 -2.61375,-7.84127 -1.43757,0 -2.61376,3.52857 -2.61376,7.84127 0,5.22751 -1.30688,7.84127 -3.92063,7.84127 -2.17831,0 -3.92064,-2.32334 -3.92064,-5.22751 0,-7.77078 -4.89661,-6.32574 -6.6426,1.96031 -0.833,3.95331 -2.6101,9.21499 -3.94912,11.69264 -1.9977,3.69567 -0.91299,4.94439 6.03882,6.9521 10.05042,2.90271 19.11989,3.08143 28.07671,0.55328 z"
       id="path3727"
       inkscape:connector-curvature="0" />
    <path
       style="fill:#181818"
       d="m -301.93212,894.60266 c -1.01948,-1.01945 -1.85359,-22.28923 -1.85359,-47.26618 0,-43.41343 0.24245,-45.4126 5.50776,-45.4126 6.89352,0 7.30204,-2.01749 11.12905,-54.96398 2.68207,-37.10626 2.52799,-43.224 -1.22345,-48.57993 -13.93373,-19.89322 5.42316,-47.30605 30.13097,-42.67085 7.45888,1.3993 18.62252,-1.5336 52.11333,-13.69113 23.44158,-8.50955 45.23318,-17.92589 48.42582,-20.92521 12.94534,-12.1615 40.20089,-2.2135 40.20089,14.67298 0,6.59686 26.361096,35.48103 32.381751,35.48103 1.65718,0 6.418942,2.67905 10.581674,5.95345 7.342107,5.77532 7.513766,6.54492 5.736224,25.71837 -1.007826,10.87069 -2.382076,21.7324 -3.053868,24.13714 -0.781143,2.79602 3.380366,7.677 11.543764,13.53951 l 12.765234,9.1673 -9.114588,9.40389 c -5.941749,6.13031 -10.061497,8.457 -11.834674,6.6838 -1.773205,-1.77318 -0.902367,-4.72862 2.501605,-8.48998 5.145535,-5.68573 5.101967,-5.86779 -2.985082,-12.47736 -10.882149,-8.89402 -25.044543,-8.97982 -35.99551,-0.21798 -8.26916,6.61605 -8.28959,6.7021 -2.98508,12.56352 4.10885,4.54022 4.58293,6.66006 2.05491,9.18807 -2.52804,2.52805 -5.17798,1.06958 -11.48587,-6.32151 l -8.19966,-9.60772 6.12987,-5.195 c 3.37141,-2.85726 8.74914,-7.26236 11.9505,-9.78913 5.23857,-4.1347 5.61778,-6.3147 3.792,-21.79924 -1.95215,-16.55635 -2.68438,-17.82911 -19.41781,-33.75212 -9.56406,-9.10085 -20.65418,-17.19833 -24.64475,-17.9944 -4.69047,-0.93568 -21.2982,3.62426 -46.97639,12.89819 -51.87227,18.73423 -51.42877,18.10228 -47.65037,67.89565 4.23166,55.76678 4.86953,59.17278 11.08156,59.17278 4.53502,0 5.39037,1.98537 5.39037,12.51164 l 0,12.51163 18.07237,0 18.07236,0 0,-20.85272 0,-20.85273 26.41345,0 26.41346,0 0,21.0126 0,21.0126 11.81654,-0.85497 11.81655,-0.85496 0,-20.16244 0,-20.16245 25.718364,0.006 25.718364,0.006 0,20.52882 0,20.52884 18.042419,1.14884 c 12.466067,0.7938 20.414793,2.90943 25.718364,6.84529 9.2071189,6.83271 15.1271526,22.82147 12.7853357,34.5305 -2.2079146,11.0396 -14.9222397,23.61705 -26.1425637,25.86111 -11.821717,2.36434 -268.072963,2.28624 -270.441603,-0.0823 z m 280.595741,-15.67872 c 9.35673,-10.88059 9.152596,-26.46801 -0.465016,-35.50505 l -7.173477,-6.74046 -132.539798,0 -132.53977,0 -0.82012,21.99715 c -0.45109,12.09842 -0.16404,23.70708 0.63801,25.79702 1.21046,3.15441 23.94249,3.66844 133.82491,3.02612 l 132.366772,-0.77375 6.708489,-7.80103 z m -31.597943,-3.47807 c -13.103354,-9.17795 -5.12346,-31.81653 11.215014,-31.81653 7.244932,0 18.750327,11.08939 18.750327,18.07236 0,6.33064 -11.470918,18.07236 -17.655503,18.07236 -3.371775,0 -8.911205,-1.9477 -12.309838,-4.32819 z m 17.249598,-8.37654 c 5.995716,-5.99571 0.871311,-15.78282 -7.630013,-14.57252 -10.27272,1.46244 -9.016941,18.65899 1.3797,18.8936 1.037688,0.0222 3.850304,-1.92107 6.250313,-4.32108 z M -275.426,870.8769 c -4.28871,-4.28871 -4.28871,-14.06169 0,-18.3504 2.46727,-2.46724 28.55831,-3.33644 100.1527,-3.33644 l 96.816268,0 3.006797,6.59922 c 2.182613,4.79029 2.139462,8.21984 -0.157369,12.51164 -3.133887,5.85559 -4.093307,5.91242 -99.823116,5.91242 -71.47195,0 -97.52824,-0.8694 -99.99528,-3.33644 z m 192.679201,-9.1752 c 0,-1.78419 -33.620711,-3.04266 -93.837271,-3.51243 -51.6105,-0.40266 -93.83728,0.32719 -93.83728,1.62187 0,1.29467 0.85071,3.20464 1.89043,4.24439 3.11815,3.11812 185.784121,0.8038 185.784121,-2.35383 z m -151.529821,-43.09564 0,-8.34109 -30.584,0 -30.584,0 0,8.34109 0,8.34109 30.584,0 30.584,0 0,-8.34109 z m 86.19127,-8.34109 0,-16.68218 -16.68218,0 -16.68218,0 0,16.68218 0,16.68218 16.68218,0 16.68218,0 0,-16.68218 z m 77.850187,0 0,-16.68218 -16.682182,0 -16.682185,0 0,16.68218 0,16.68218 16.682185,0 16.682182,0 0,-16.68218 z M -247.3701,799.83861 c 0.83553,-1.53301 -3.14415,-57.17379 -6.21898,-86.94956 -0.0826,-0.79936 -5.01589,-1.45338 -10.963,-1.45338 l -10.81292,0 -1.57302,13.96501 c -0.86516,7.68076 -2.43323,28.04061 -3.48463,45.24411 l -1.91158,31.27909 16.91381,0 c 9.3026,0 17.42524,-0.93837 18.05032,-2.08527 z m 165.45741,-73.54062 c 1.83504,-1.83504 3.336436,-5.58853 3.336436,-8.34109 0,-3.70714 -2.162511,-5.00466 -8.341091,-5.00466 -6.178579,0 -8.341091,1.29752 -8.341091,5.00466 0,4.82246 4.896471,11.67753 8.341091,11.67753 0.91752,0 3.169615,-1.5014 5.004655,-3.33644 z M -250.12883,696.7784 c 13.14175,-11.54952 -2.91232,-38.12505 -19.50581,-32.28942 -10.64218,3.74264 -16.6652,15.31099 -13.16038,25.27689 4.97713,14.15233 20.70122,17.52786 32.66619,7.01253 z m 168.954994,4.95458 c 7.878911,-4.21667 6.99584,-15.96644 -1.490637,-19.83312 -5.251968,-2.39297 -7.869513,-2.2988 -11.121454,0.40004 -5.736808,4.76113 -5.386037,15.81421 0.612764,19.30818 6.104566,3.55559 5.598846,3.55033 11.999327,0.12484 z m -19.503024,-23.70675 c 3.069684,-3.69874 1.892089,-6.05346 -7.94879,-15.89433 -11.17886,-11.17887 -11.68314,-11.37556 -15.59886,-6.08436 -3.70587,5.00766 -3.19459,6.34574 6.07314,15.89434 11.42541,11.7717 12.45648,12.1307 17.47451,6.08435 z m -97.22362,-11.34861 c 34.98743,-12.61047 35.77889,-13.07855 34.08492,-20.15763 -0.95383,-3.98607 -2.12158,-7.70648 -2.59502,-8.26761 -1.28531,-1.52339 -73.43294,25.13666 -73.38881,27.11872 0.0884,3.97481 3.49992,14.21678 4.73537,14.21678 0.73941,0 17.46302,-5.80962 37.16354,-12.91026 z m 68.3531,-19.3843 c 4.26719,-6.51259 4.33725,-8.0357 0.67148,-14.59691 -7.70477,-13.79047 -27.55054,-9.05334 -27.55054,6.5762 0,15.20736 18.54439,20.74101 26.87906,8.02071 z"
       id="path3740"
       inkscape:connector-curvature="0" />
    <path
       style="fill:#191919"
       d="m -545.14288,192.68451 c 0,-14.29542 5.81332,-34.05626 13.65411,-46.4135 7.52628,-11.8616 25.18591,-26.53874 36.07737,-29.98438 4.74265,-1.50039 8.98976,-3.32142 9.43802,-4.04671 1.41997,-2.29755 -7.48675,-18.330723 -10.8383,-19.510295 -9.77727,-3.441059 -13.87162,-16.646402 -7.22273,-23.295266 4.32531,-4.325312 3.77227,-5.299703 -3.00794,-5.299703 -5.04285,0 -6.01587,-0.792471 -6.01587,-4.899528 0,-2.69473 1.62384,-6.078658 3.60852,-7.519841 2.21783,-1.610449 4.48255,-7.413621 5.87638,-15.057691 1.24731,-6.840549 3.78441,-15.633269 5.63798,-19.539375 4.32212,-9.1082127 15.56826,-18.9797187 23.40921,-20.5479167 3.58441,-0.716892 6.5203,-2.759 7.0881,-4.930249 0.83779,-3.2037333 3.08169,-3.7064593 16.54383,-3.7064593 13.49384,0 15.7048,0.497994 16.54933,3.7274953 0.53611,2.050129 3.57411,4.376327 6.75107,5.169359 14.93753,3.72863898 25.23514,17.8273987 28.69004,39.2802827 1.32634,8.235891 3.46653,13.910404 6.21057,16.466889 5.54471,5.16567 4.34394,10.390737 -2.57133,11.188903 -6.16827,0.711958 -6.93983,2.690539 -2.48947,6.384004 6.61137,5.486938 0.66474,22.058202 -7.91562,22.058202 -1.59633,0 -5.12296,4.420965 -7.83692,9.824379 l -4.93452,9.82438 8.40528,3.21001 c 4.62291,1.7655 9.35318,3.21001 10.51173,3.21001 1.15854,0 7.96883,5.63988 15.13395,12.53307 18.23825,17.54605 27.74457,39.73841 27.74457,64.76933 l 0,8.92511 -94.24868,0 -94.24868,0 0,-11.82051 z m 35.77379,-13.12848 c 1.2797,-10.41321 2.29383,-25.97927 2.25363,-34.59127 l -0.0732,-15.65815 -10.77354,11.42793 c -12.19025,12.93068 -18.93484,28.03507 -20.64058,46.22418 l -1.08132,11.53043 13.99411,0 13.9941,0 2.32674,-18.93312 z m 112.60108,18.43179 c -0.01,-0.27572 -1.3451,-10.42751 -2.96877,-22.55952 -1.62368,-12.13201 -2.96975,-28.50391 -2.99129,-36.38201 -0.0385,-14.10352 -1.32945,-16.7582 -8.14906,-16.7582 -0.97133,0 -2.02549,8.34702 -2.3426,18.54894 l -0.57659,18.54894 -37.09788,0 -37.09788,0 -0.57659,-18.54894 c -0.49621,-15.96388 -1.05514,-18.54467 -4.01058,-18.51824 -7.042,0.063 -7.87215,2.94916 -9.21954,32.05395 -0.74036,15.9922 -1.87056,32.46065 -2.51157,36.59657 l -1.16548,7.51984 54.36224,0 c 29.89925,0 54.35476,-0.2256 54.34559,-0.50133 z m -97.57575,-16.77472 c -3.07905,-4.69922 -3.129,-5.79346 -0.48053,-10.52777 5.83233,-10.42575 19.8666,-7.07519 19.8666,4.74297 0,11.40553 -13.13508,15.32504 -19.38607,5.7848 z m 12.69676,-3.9143 c 1.82483,-4.75543 -2.45209,-8.10932 -6.28483,-4.92845 -2.3751,1.97116 -2.57567,3.24047 -0.8421,5.3293 3.00289,3.61825 5.64161,3.46984 7.12693,-0.40085 z m 55.48313,3.9143 c -3.07904,-4.69922 -3.12899,-5.79346 -0.48055,-10.52777 5.83235,-10.42575 19.86662,-7.07519 19.86662,4.74297 0,11.40553 -13.13507,15.32504 -19.38607,5.7848 z m 12.69676,-3.9143 c 1.67133,-4.35542 -2.57166,-8.45132 -5.6087,-5.41429 -2.56685,2.56685 -0.97667,8.55702 2.27156,8.55702 1.17213,0 2.67385,-1.41423 3.33714,-3.14273 z m 50.80572,15.59579 c 0,-17.40108 -11.34287,-43.24118 -24.52217,-55.86374 l -8.06494,-7.72424 1.26649,29.07672 c 1.84318,42.31745 0.87717,40.10582 17.51736,40.10582 13.76909,0 13.80326,-0.014 13.80326,-5.59456 z m -56.14815,-57.57211 c 0,-15.33759 -0.37714,-17.04497 -3.76504,-17.04497 -2.07078,0 -4.84901,1.30608 -6.17383,2.9024 -1.32483,1.59633 -6.3901,4.42289 -11.25616,6.28125 -10.88522,4.15711 -20.65494,2.87561 -31.18063,-4.08997 -4.23341,-2.80152 -8.61882,-5.09368 -9.74537,-5.09368 -1.23354,0 -2.04829,6.77999 -2.04829,17.04497 l 0,17.04497 32.08466,0 32.08466,0 0,-17.04497 z m -23.49776,-13.73315 c 10.54386,-4.41844 18.95633,-12.83182 24.45731,-24.459936 3.51694,-7.434195 6.36072,-10.936536 8.88011,-10.936536 9.00759,0 10.27158,-11.699911 1.65222,-15.293373 -7.17447,-2.991112 -86.80833,-1.974189 -90.58082,1.156692 -6.04044,5.013128 -2.96807,12.791892 5.69631,14.422214 2.34735,0.441685 4.8738,3.789258 6.57809,8.716118 4.54309,13.133141 22.62883,28.916991 33.29032,29.053211 1.96551,0.0251 6.47741,-1.17117 10.02646,-2.65839 z m 33.52421,-61.580159 13.03439,-2.55819 -8.18764,-3.606536 c -12.54959,-5.527926 -35.66508,-8.40249 -56.98432,-7.086358 -18.03546,1.113398 -39.0071,5.710227 -42.87362,9.397596 -1.70859,1.629399 0.151,2.13752 21.81807,5.961229 13.31948,2.350562 56.86674,1.096533 73.19312,-2.107741 z m -68.17989,-18.096669 c 19.67663,-3.243619 52.91965,-1.671531 68.37392,3.233472 3.13684,0.995586 3.81457,0.205141 3.80536,-4.438351 -0.0293,-14.756356 -8.48175,-29.75116 -20.181,-35.8010827 -9.24584,-4.78121602 -9.88717,-3.99610402 -9.88717,12.1037757 0,12.031746 -0.60159,15.039683 -3.00794,15.039683 -2.46264,0 -3.00793,-3.453552 -3.00793,-19.050265 l 0,-19.0502647 -10.02646,0 -10.02646,0 0,19.0502647 c 0,15.596713 -0.54529,19.050265 -3.00793,19.050265 -2.40635,0 -3.00794,-3.007937 -3.00794,-15.039683 0,-16.43127472 -0.46019,-16.91262472 -11.26685,-11.7845137 -8.98304,4.262727 -14.03531,11.6534677 -17.77129,25.9969137 -3.99512,15.338291 -3.96099,15.530538 2.46803,13.903485 3.03301,-0.767585 10.47765,-2.213741 16.54366,-3.213699 z"
       id="path3753"
       inkscape:connector-curvature="0" />
    <path
       style="fill:#191919"
       d="m -191.01432,2.8819504 c -1.35589,-6.77945 -3.57501,-7.26453 -8.03525,-1.75637 -3.06313,3.78281 -3.56057,3.84229 -8.92669,1.06736 -8.54873,-4.42073 -10.80151,-7.82568 -8.2866,-12.5248204 2.37583,-4.43927 0.52093,-5.72029 -7.44959,-5.14478 -3.60547,0.26032 -5.52723,-1.24444 -8.42976,-6.60055 -3.56243,-6.57388 -3.58952,-7.12573 -0.51637,-10.52151 4.53444,-5.0105 4.04028,-8.00176 -1.3219,-8.00176 -3.49355,0 -4.84436,-1.27129 -5.75468,-5.41593 -1.8665,-8.49811 0.58238,-15.33007 5.49496,-15.33007 6.40995,0 7.16477,-2.10274 2.52696,-7.03948 l -4.21844,-4.49031 3.75312,-6.96562 c 3.22273,-5.98121 4.6827,-6.96561 10.33069,-6.96561 6.49959,0 7.06362,-0.82107 4.71153,-6.8588 -0.81338,-2.08788 0.51463,-4.27726 4.10375,-6.76559 8.59616,-5.95967 11.6929,-6.47072 14.26388,-2.35392 3.36347,5.38578 6.58695,4.56961 8.03757,-2.03505 1.21262,-5.521 1.61951,-5.73133 10.03439,-5.1865 7.0465,0.45624 8.90253,1.30932 9.44206,4.33985 1.16374,6.53675 3.76031,7.55642 8.32416,3.26888 l 4.29673,-4.03655 7.51577,4.31843 c 4.36841,2.51004 7.22202,5.43504 6.81433,6.98484 -0.38578,1.46654 -1.13454,4.20237 -1.66395,6.07966 -0.82742,2.93411 0.0577,3.33124 6.30477,2.829 6.72078,-0.5403 7.55507,-0.0438 11.09395,6.6024 l 3.82666,7.18664 -4.54542,3.73315 c -4.77728,3.92358 -3.88804,6.48781 2.65941,7.66884 3.17509,0.57272 3.77201,2.16453 3.77201,10.05874 0,7.89422 -0.59692,9.48602 -3.77201,10.05874 -6.54966,1.18143 -7.43586,3.74475 -2.65941,7.69238 l 4.54542,3.75668 -4.09587,7.16311 c -3.72827,6.52024 -4.72392,7.11068 -11.09395,6.57886 -5.98663,-0.49981 -6.85898,-0.0909 -6.03556,2.829 0.52941,1.87729 1.27817,4.6131204 1.66395,6.0796604 0.40769,1.5498 -2.44592,4.4748 -6.81433,6.98483996 l -7.51577,4.31843004 -4.29673,-4.03655004 c -4.56385,-4.28753996 -7.16042,-3.26786996 -8.32416,3.26888004 -0.54221,3.04557 -2.3986,3.88291 -9.63933,4.34791 -8.65956,0.556103 -9.00743,0.37784 -10.1203,-5.18651 z m 14.40702,-2.79869004 c 0,-7.26700996 12.2503,-11.48444036 16.94112,-5.83233996 3.60036,4.33814 9.20184,0.46722 8.04919,-5.5624404 -1.25508,-6.56547 2.52019,-10.42895 10.19083,-10.42895 7.70554,0 10.10044,-4.20057 5.37309,-9.42425 -4.48414,-4.9549 -2.41424,-12.76794 3.79552,-14.32649 6.51636,-1.63551 6.51636,-9.32903 0,-10.96453 -6.20976,-1.55856 -8.27966,-9.37158 -3.79552,-14.3265 4.72735,-5.22368 2.33245,-9.42425 -5.37309,-9.42425 -7.67064,0 -11.44591,-3.86348 -10.19083,-10.42895 1.15265,-6.02966 -4.44883,-9.90058 -8.04919,-5.56244 -4.69082,5.6521 -16.94112,1.43467 -16.94112,-5.83234 0,-4.78365 -7.21512,-2.95184 -9.81625,2.49222 -2.98249,6.24219 -9.82343,7.71533 -14.82191,3.19177 -4.9636,-4.492 -9.56953,-0.71819 -8.09877,6.63559 1.2883,6.44153 -5.09732,11.9067 -11.91323,10.19601 -5.7904,-1.4533 -7.50504,3.21678 -3.45214,9.4023 3.76997,5.75368 1.38071,11.75127 -5.76339,14.46745 -2.53018,0.96198 -4.60033,3.06409 -4.60033,4.6714 0,1.60731 2.07015,3.70942 4.60033,4.6714 7.1441,2.71618 9.53336,8.71377 5.76339,14.46745 -4.12951,6.30243 -2.44572,9.88487 4.55251,9.6859 7.89408,-0.22445 12.06405,3.65647 10.78741,10.03964 -1.42078,7.1038804 3.19608,10.9682604 7.95676,6.6599204 5.37105,-4.8607404 11.35142,-3.8408 14.99184,2.55679 3.3022,5.80323 9.81378,7.77761 9.81378,2.97563996 z M -199.71543,-18.09924 c -8.21198,-4.33518 -16.48891,-15.8204 -17.05082,-23.66007 -0.38482,-5.36903 -0.24079,-5.44988 10.71635,-6.01561 9.93953,-0.51318 11.67335,-0.0304 16.50251,4.59636 4.82165,4.61945 5.39609,6.43724 5.39609,17.07594 0,11.11449 -0.28216,11.90061 -4.2435,11.8228 -2.33393,-0.0458 -7.4282,-1.76458 -11.32063,-3.81942 z m 6.3804,-20.40164 c -3.73034,-3.23531 -17.22028,-3.44024 -17.22028,-0.26159 0,2.7926 8.24742,11.84746 13.97772,15.34614 l 5.82529,3.5567 0.58726,-7.6913 c 0.44464,-5.82343 -0.3252,-8.48269 -3.16999,-10.94995 z m 16.72773,12.14258 c 0,-10.23893 0.71897,-12.93761 4.54721,-17.06835 4.11678,-4.44208 5.6789,-4.85296 16.50251,-4.34068 l 11.9553,0.56585 -0.58609,5.658 c -1.21896,11.76733 -17.4169,27.34702 -28.43222,27.34702 -3.64611,0 -3.98671,-1.039 -3.98671,-12.16184 z m 22.16836,-6.62871 c 2.3453,-3.48018 3.78788,-6.8039 3.20575,-7.38603 -1.65312,-1.65314 -14.73238,-0.0969 -17.3586,2.06538 -1.29663,1.06757 -2.3575,5.7344 -2.3575,10.37074 l 0,8.42967 6.12309,-3.57607 c 3.3677,-1.96685 8.04198,-6.42351 10.38726,-9.90369 z m -62.85354,-23.31923 c -1.21055,-3.15464 1.89381,-11.44037 6.94297,-18.53126 4.24984,-5.96836 16.2703,-12.913 22.35107,-12.913 3.45819,0 3.84714,1.18128 3.84714,11.68431 0,10.11049 -0.68262,12.39679 -5.06785,16.974 -4.4206,4.61411 -6.47564,5.28971 -16.09021,5.28971 -7.42145,0 -11.33622,-0.81796 -11.98312,-2.50376 z m 24.18268,-7.66565 c 2.21411,-1.68075 3.3005,-5.09132 3.3005,-10.36145 l 0,-7.85602 -5.43334,2.80969 c -5.61314,2.90267 -15.31267,13.22247 -15.31267,16.2919 0,2.65353 13.69985,1.95925 17.44551,-0.88412 z m 20.74601,5.26011 c -3.45657,-3.94338 -4.24351,-7.08478 -4.24351,-16.93993 0,-11.41049 0.24984,-12.09879 4.39165,-12.09879 7.51839,0 21.37007,10.68427 25.85032,19.93924 5.80873,11.99924 4.37895,14.01579 -9.90827,13.9747 -10.33672,-0.0298 -12.38756,-0.65112 -16.09019,-4.87522 z m 22.16051,-3.87119 c 0,-2.96728 -10.11019,-14.1064 -15.1855,-16.73094 l -5.56051,-2.87545 0,8.15824 c 0,4.48702 1.01844,9.17667 2.2632,10.42143 2.33343,2.33344 18.48281,3.23054 18.48281,1.02672 z m -131.1591,17.73377 c -0.49868,-1.29949 -0.68421,-35.03533 -0.41232,-74.96854 l 0.49436,-72.60581 100.90104,0 100.901046,0 0,74.49704 0,74.49703 -17.445508,0.54229 c -14.467998,0.44971 -17.445508,0.0609 -17.445508,-2.27818 0,-2.21326 3.14666,-2.93903 14.616507,-3.37128 l 14.616507,-0.55083 0,-52.80802 0,-52.80803 -95.243044,0 -95.24304,0 0,52.80803 0,52.80802 14.61651,0.55083 c 11.2958,0.4257 14.6165,1.17552 14.6165,3.3005 0,3.69435 -33.5614,4.06567 -34.97305,0.38695 z m 196.783795,-129.18584 -0.557671,-12.7305 -95.243044,0 -95.24304,0 -0.55767,12.7305 -0.55767,12.73051 96.35838,0 96.358387,0 -0.557672,-12.73051 z m -181.620695,5.17885 c -2.8263,-3.12305 -3.04793,-4.59745 -1.27573,-8.48701 2.86363,-6.28502 12.39065,-6.61007 15.64263,-0.53372 l 2.23364,4.17363 1.54394,-4.17363 c 1.12296,-3.03566 3.08507,-4.17362 7.19634,-4.17362 10.47849,0 12.60073,13.7789 2.51223,16.31095 -3.77183,0.94667 -5.72507,0.22205 -8.44044,-3.13129 l -3.53293,-4.36298 -2.8568,4.07866 c -3.57201,5.09975 -8.57433,5.21461 -13.02288,0.29901 z m 8.49395,-4.70735 c 0,-1.55595 -0.8487,-2.829 -1.886,-2.829 -1.0373,0 -1.886,1.27305 -1.886,2.829 0,1.55595 0.8487,2.829 1.886,2.829 1.0373,0 1.886,-1.27305 1.886,-2.829 z m 19.14291,0 c 0,-0.98543 -0.91236,-2.09582 -2.02745,-2.46751 -1.1151,-0.37171 -2.02746,0.73867 -2.02746,2.46751 0,1.72884 0.91236,2.83923 2.02746,2.46751 1.11509,-0.37169 2.02745,-1.48207 2.02745,-2.46751 z m 11.4103,6.22381 c -5.29023,-5.29024 -1.3046,-14.71081 6.2238,-14.71081 5.15426,0 8.48701,3.45481 8.48701,8.79785 0,6.69338 -9.93645,10.68731 -14.71081,5.91296 z m 9.05281,-7.27812 c 0,-0.97608 -1.27306,-1.77469 -2.82901,-1.77469 -2.91653,0 -3.74691,2.22541 -1.62294,4.3494 1.50679,1.50679 4.45195,-0.1965 4.45195,-2.57471 z m 67.89603,1.14048 0,-8.57317 13.31044,0 13.31046,0 -0.57995,8.0155 -0.57994,8.01551 -12.73051,0.55767 -12.7305,0.55767 0,-8.57318 z m 20.28588,-0.55767 c 0.53466,-1.62754 -1.61006,-2.3575 -6.92672,-2.3575 -5.72056,0 -7.70116,0.75685 -7.70116,2.94286 0,2.23853 1.65778,2.80275 6.92671,2.3575 3.8097,-0.32196 7.27523,-1.64623 7.70117,-2.94286 z m 11.14747,7.70117 c -0.69154,-0.69152 -1.25734,-4.51068 -1.25734,-8.48701 l 0,-7.22966 13.202,0 13.20201,0 0,8.487 0,8.48701 -11.94467,0 c -6.56958,0 -12.51048,-0.5658 -13.202,-1.25734 z m 19.488667,-7.22967 c 0,-2.04316 -2.095557,-2.829 -7.544007,-2.829 -7.07899,0 -9.20155,1.48579 -6.28666,4.40066 0.69152,0.69154 4.08632,1.25734 7.544,1.25734 4.33081,0 6.286667,-0.88014 6.286667,-2.829 z m -164.082077,98.07205 c 0,-2.19868 2.5081,-2.829 11.25681,-2.829 9.23122,0 11.06147,0.50907 10.17124,2.829 -0.77928,2.03075 -3.95555,2.829 -11.25682,2.829 -7.78376,0 -10.17123,-0.66404 -10.17123,-2.829 z m 144.54003,0 c -0.89023,-2.31993 0.94002,-2.829 10.17123,-2.829 8.74872,0 11.256818,0.63032 11.256818,2.829 0,2.16496 -2.38747,2.829 -10.171218,2.829 -7.30128,0 -10.47755,-0.79825 -11.25683,-2.829 z m -144.54003,-15.00868 c 0,-2.38057 2.76643,-2.90833 15.24517,-2.90833 11.35482,0 15.04614,0.6016 14.46516,2.3575 -0.51128,1.54528 -5.76373,2.54729 -15.24517,2.90833 -12.01409,0.4575 -14.46516,0.0581 -14.46516,-2.3575 z m 137.0494,1.49233 c -3.3457,-3.34569 -0.0302,-4.40066 13.83067,-4.40066 12.15422,0 15.088008,0.55009 15.088008,2.829 0,2.25749 -2.794068,2.829 -13.830668,2.829 -7.60688,0 -14.39648,-0.5658 -15.08801,-1.25734 z m -138.12972,-16.33742 c -0.52906,-1.37873 -0.7146,-10.07791 -0.41231,-19.33151 l 0.54963,-16.82475 26.40402,0 26.40401,0 0.54456,15.36053 0.54455,15.36054 -6.42517,3.97097 c -5.48084,3.38733 -9.38101,3.97098 -26.53626,3.97098 -14.98773,0 -20.35614,-0.6386 -21.07303,-2.50676 z m 47.84502,-17.76775 -0.55767,-12.73051 -20.74601,0 -20.74601,0 -0.55767,12.73051 -0.55768,12.7305 21.86136,0 21.86135,0 -0.55767,-12.7305 z m 73.3107,17.13116 c -3.55111,-3.55109 0.75741,-4.40066 22.31767,-4.40066 19.69822,0 23.575008,0.46522 23.575008,2.829 0,2.3553 -3.737068,2.82901 -22.317668,2.82901 -12.27474,0 -22.88349,-0.56581 -23.57501,-1.25735 z m -57.83737,-16.65966 c 0,-2.36378 3.87679,-2.829 23.57501,-2.829 19.69823,0 23.57502,0.46522 23.57502,2.829 0,2.36378 -3.87679,2.829 -23.57502,2.829 -19.69822,0 -23.57501,-0.46522 -23.57501,-2.829 z m 56.58003,0 c 0,-2.36378 3.87678,-2.829 23.57501,-2.829 19.69822,0 23.575008,0.46522 23.575008,2.829 0,2.36378 -3.876788,2.829 -23.575008,2.829 -19.69823,0 -23.57501,-0.46522 -23.57501,-2.829 z m -56.58003,-15.08801 c 0,-2.36378 3.87679,-2.829 23.57501,-2.829 19.69823,0 23.57502,0.46522 23.57502,2.829 0,2.36378 -3.87679,2.829 -23.57502,2.829 -19.69822,0 -23.57501,-0.46522 -23.57501,-2.829 z m 56.58003,0 c 0,-2.36378 3.87678,-2.829 23.57501,-2.829 19.69822,0 23.575008,0.46522 23.575008,2.829 0,2.36378 -3.876788,2.829 -23.575008,2.829 -19.69823,0 -23.57501,-0.46522 -23.57501,-2.829 z"
       id="path3766"
       inkscape:connector-curvature="0" />
  </g>
</svg>
